<?xml version="1.0" encoding="UTF-8"?>
<svg id="Layer_1" xmlns="http://www.w3.org/2000/svg" version="1.1" viewBox="0 0 600 300">
  <!-- Generator: Adobe Illustrator 30.0.0, SVG Export Plug-In . SVG Version: 2.1.1 Build 123)  -->
  <defs>
    <style>
      .st0 {
        fill: #fff;
      }

      .st1 {
        fill: #2957a6;
      }

      .st2 {
        fill: #ee4623;
      }
    </style>
  </defs>
  <path class="st0" d="M148.08,44.9l-2.67,35.52-59.71,4.07,19.48,41.25-33.99,22.15-24.36,2.1-.51,1.34,30.3,1.87,10.95,73.93s31.41-14.77,31.75-15.36c.34-.59,26.74,15.79,26.74,15.79l2.04,26.23,1.61-1.87,3.14-34.89,56.53-.76,10.19-32,6.62-31.15,30.64-1.95-3.65-1.17-29.28-2.22-2.63-1.27s-1.19-12.2-1.19-13.31-6.96-58.66-6.96-58.66c0,0-50.25,12.31-50.42,12.56-.17.25-8.4-11.37-8.4-11.37l-2.72-1.1-1.44-28.86-2.04-.85Z"/>
  <g>
    <g>
      <g>
        <path class="st1" d="M422.9,169.35c-8.1.82-15.16,1.23-21.2,1.23s-10.3-.68-13.06-2.05c-2.76-1.37-5.76-4.26-8.98-8.67-3.74-5.14-9.78-15.96-18.11-32.44v23.77c0,5.28.19,8.74.56,10.38.8,3.37,2.78,6.19,5.97,8.47h-40.43c3.18-2.28,5.17-5.1,5.97-8.47.37-1.55.56-5.01.56-10.38v-57.23c0-6.74-.59-11.22-1.75-13.45-.98-2.05-2.57-3.85-4.77-5.4h28.71c13.71,0,22.36.14,25.94.41,3.58.27,7.08,1.14,10.49,2.6,4.54,1.91,8.19,4.83,10.95,8.74,2.76,3.92,4.14,8.15,4.14,12.7,0,10.47-6.6,18.37-19.79,23.7,15.49,25.18,27.09,40.55,34.82,46.1ZM378.54,103.79c0-3.41-.9-6.41-2.7-8.98-1.8-2.57-4.13-4.22-6.98-4.95-1.87-.41-4.31-.61-7.3-.61v32.58c5.33-.96,9.5-3.06,12.49-6.32,2.99-3.25,4.49-7.16,4.49-11.71Z"/>
        <path class="st1" d="M507.29,74.8l-5.28,22.68c-1.32-2.42-2.96-4.09-4.93-5-1.97-.91-4.91-1.37-8.8-1.37-3.05,0-11.74.25-14.65.75v59.69c0,4.75.48,8.53,1.44,11.34.96,2.81,2.76,5.47,5.39,7.98h-41.42c3.19-2.28,5.16-5.12,5.92-8.5.47-1.55.7-5.03.7-10.42v-60.1c-2.25-.32-11.1-.48-13.87-.48-4.04,0-7.37.46-10,1.37-2.11.73-5.07,2.31-8.87,4.73l5.99-22.27,2.46.21,22.61.21h32.33c13.76,0,27.89-.27,30.99-.82Z"/>
        <path class="st1" d="M600,147.91l-7.57,19.39c-8.33,2.39-17.95,3.59-28.87,3.59-13.51,0-24.77-2.79-33.78-8.37-7.33-4.56-13.01-10.3-17.06-17.23-4.05-6.93-6.07-14.49-6.07-22.68,0-7.13,1.57-13.94,4.71-20.45,3.14-6.51,7.48-11.82,13.03-15.94,10.05-7.61,23.36-11.42,39.92-11.42,7.14,0,14.38.62,21.7,1.86l1.02,19.52c-7.83-4.78-15.79-7.17-23.89-7.17-8.6,0-14.99,2.63-19.18,7.9-4.6,5.8-6.89,13.88-6.89,24.24,0,10.93,2.87,19.59,8.6,25.96,5.73,6.37,13.51,9.56,23.34,9.56,8.55,0,18.88-2.92,30.98-8.76Z"/>
      </g>
      <g>
        <path class="st1" d="M350.89,193.59l-1.42,5.44c-.39-.78-.99-1.26-1.77-1.5-.47-.15-1.28-.23-2.41-.23-.43,0-1.48.15-3.11.15h-.72v21.1c0,1.5.14,2.61.45,3.31.31.7.95,1.39,1.89,2.05h-8.8c.97-.53,1.56-1.37,1.81-2.55.12-.55.18-1.64.18-3.27v-20.64c-.88-.11-2.08-.15-3.58-.15-1.36,0-2.37.08-3.04.27-.86.23-1.77.72-2.74,1.45l1.65-5.44c.6.21,1.34.32,2.26.32h16.74c.35,0,.72-.02,1.11-.04.39-.02.6-.04.6-.04l.88-.23Z"/>
        <path class="st1" d="M375.75,223.43c-1.83.74-3.87,1.1-6.15,1.1-3.7,0-6.73-1.03-9.07-3.1-2.35-2.09-3.52-4.76-3.52-8.05s1.21-6.2,3.62-8.45c1.87-1.75,4.36-2.64,7.43-2.64s5.33.93,7.24,2.8c1.91,1.88,2.86,4.24,2.86,7.13v.74h-16.35c.12,2.64.97,4.72,2.53,6.24,1.58,1.5,3.7,2.26,6.38,2.26s5.24-.78,7.45-2.36l-2.41,4.34ZM373.48,210.1c-.62-3.37-2.51-5.06-5.66-5.06s-5.14,1.69-5.84,5.06h11.5Z"/>
        <path class="st1" d="M402.95,223.7c-1.34.55-3.23.82-5.68.82-3.54,0-6.44-.99-8.72-2.99-2.28-2-3.41-4.58-3.41-7.72s1.21-6.03,3.62-8.29c2.28-2.17,5.29-3.25,9.05-3.25,1.63,0,3.25.19,4.85.57v4.7c-1.46-1.48-3.31-2.21-5.55-2.21s-4.05.7-5.41,2.07c-1.34,1.37-2.02,3.18-2.02,5.46,0,2.47.86,4.53,2.59,6.16,1.73,1.62,3.91,2.42,6.52,2.42,2.26,0,4.53-.74,6.77-2.19l-2.61,4.45Z"/>
        <path class="st1" d="M425.94,223.91c.78-.61,1.25-1.14,1.44-1.6.19-.46.29-1.43.29-2.89v-8.07c0-1.83-.29-3.14-.84-3.88-.95-1.29-2.39-1.94-4.3-1.94s-3.27.61-4.26,1.81c-.35.42-.58.84-.68,1.26-.08.42-.12,1.24-.12,2.49v8.33c0,1.45.08,2.42.25,2.87.19.44.68.99,1.48,1.62h-7.4c.78-.63,1.25-1.18,1.42-1.62.18-.44.27-1.41.27-2.87v-21.02c0-1.5-.08-2.47-.25-2.87-.14-.42-.64-.97-1.44-1.62h3.09c1.21,0,2.08-.3,2.59-.86v12.12c1.44-1.92,3.66-2.89,6.66-2.89s5.06.99,6.44,2.97c.74,1.03,1.11,2.61,1.11,4.7v9.47c0,1.43.08,2.38.25,2.85.16.46.64,1.01,1.44,1.64h-7.43Z"/>
        <path class="st1" d="M454.27,223.91c.8-.63,1.28-1.18,1.46-1.64.19-.46.27-1.41.27-2.85v-7.25c0-2.19-.33-3.71-.97-4.58-.99-1.29-2.47-1.94-4.46-1.94-.9,0-1.79.21-2.67.65-.86.42-1.48,1.01-1.83,1.79-.21.46-.31,1.18-.31,2.13v9.19c0,1.45.08,2.42.25,2.87.19.44.66.99,1.44,1.62h-7.36c.78-.63,1.25-1.18,1.42-1.62.19-.44.27-1.41.27-2.87v-12.04c0-1.48-.08-2.42-.27-2.87-.16-.44-.64-.99-1.42-1.62h2.86c1.21,0,2.08-.3,2.61-.86v3.79c1.97-2.36,4.18-3.54,6.58-3.54,1.54,0,2.96.34,4.3,1.03,1.48.78,2.49,1.83,3.02,3.2.37.95.56,2.66.56,5.17v7.74c0,1.45.08,2.42.25,2.87.16.44.64.99,1.44,1.62h-7.43Z"/>
        <path class="st1" d="M489.01,221.26c-2.26,2.17-5.06,3.27-8.41,3.27s-5.99-1.03-8.15-3.12c-2.16-2.09-3.23-4.72-3.23-7.91,0-3.63,1.4-6.54,4.18-8.71,2.12-1.67,4.75-2.51,7.88-2.51s5.64.97,7.71,2.93c2.28,2.19,3.43,4.87,3.43,8.03s-1.13,5.84-3.41,8.01ZM485.86,207.7c-1.34-1.58-3.11-2.36-5.31-2.36-2,0-3.62.72-4.9,2.13-1.25,1.41-1.89,3.23-1.89,5.48,0,2.45.68,4.47,2.04,6.09,1.38,1.6,3.09,2.4,5.16,2.4s3.72-.7,5-2.09c1.28-1.39,1.91-3.2,1.91-5.46,0-2.55-.68-4.62-2.02-6.2Z"/>
        <path class="st1" d="M498.95,223.91c.78-.63,1.25-1.18,1.42-1.62.18-.44.27-1.41.27-2.87v-21.02c0-1.5-.08-2.47-.25-2.87-.14-.42-.64-.97-1.44-1.62h3.09c1.21,0,2.08-.3,2.59-.86v26.37c0,1.45.08,2.42.25,2.87.19.44.66.99,1.44,1.62h-7.36Z"/>
        <path class="st1" d="M533.17,221.26c-2.26,2.17-5.06,3.27-8.41,3.27s-5.99-1.03-8.15-3.12c-2.16-2.09-3.23-4.72-3.23-7.91,0-3.63,1.4-6.54,4.18-8.71,2.12-1.67,4.75-2.51,7.88-2.51s5.64.97,7.71,2.93c2.28,2.19,3.43,4.87,3.43,8.03s-1.13,5.84-3.41,8.01ZM530.02,207.7c-1.34-1.58-3.11-2.36-5.31-2.36-2,0-3.62.72-4.9,2.13-1.25,1.41-1.89,3.23-1.89,5.48,0,2.45.68,4.47,2.04,6.09,1.38,1.6,3.09,2.4,5.16,2.4s3.72-.7,5-2.09c1.28-1.39,1.91-3.2,1.91-5.46,0-2.55-.68-4.62-2.02-6.2Z"/>
        <path class="st1" d="M565.22,205.21c-.19.38-.62.57-1.25.57-.8,0-2.45-.21-4.9-.65,2.2,1.58,3.29,3.48,3.29,5.65,0,2.89-1.69,4.95-5.06,6.22-1.13.4-2.59.72-4.42.91-1.17.23-1.77.63-1.77,1.18s.62.86,1.85.86c3.39.02,5.88.27,7.43.72,1.79.55,3.17,1.48,4.13,2.76.64.86.97,1.98.97,3.33,0,2.72-1.44,4.79-4.3,6.22-2.28,1.16-4.9,1.73-7.84,1.73-3.43,0-6.31-.63-8.66-1.9-2.34-1.26-3.52-2.83-3.52-4.66,0-2.26,1.52-3.63,4.13-3.63.76,0,1.54.19,2.39.55-1.32.27-1.97.97-1.97,2.09,0,1.52.68,2.72,2.04,3.58,1.38.89,3.23,1.33,5.55,1.33s4.22-.46,5.68-1.39c1.46-.91,2.2-2.11,2.2-3.56,0-2.91-3-4.36-9.01-4.36-1.05,0-1.77.02-2.16.04-.39.02-.74.04-1.01.04-.84,0-1.54-.25-2.1-.78-.72-.65-1.07-1.48-1.07-2.47,0-.44.23-.8.66-1.1.43-.32,1.4-.76,2.88-1.37-1.32-.36-2.39-.91-3.19-1.62-1.63-1.48-2.45-3.29-2.45-5.44s.88-4.07,2.63-5.54c1.75-1.5,3.93-2.23,6.5-2.23.62,0,1.91.06,3.89.21,1.56.11,2.98.17,4.26.17,1.67,0,3.5-.13,5.47-.38l-1.28,2.93ZM556.4,206.52c-1.07-1.08-2.39-1.6-3.97-1.6-1.3,0-2.37.42-3.25,1.24-.86.82-1.3,1.83-1.3,3.08,0,1.58.56,2.93,1.67,4.09,1.13,1.16,2.47,1.73,4.01,1.73,1.32,0,2.39-.42,3.21-1.26.84-.86,1.25-1.98,1.25-3.35,0-1.56-.53-2.87-1.62-3.92Z"/>
        <path class="st1" d="M596.47,202.89l-9.48,23.17c-.99,2.38-2.12,4.11-3.41,5.19-1.62,1.33-3.64,1.98-6.03,1.98-1.5,0-3.31-.38-5.39-1.16l4.01-2.97c.84.55,1.67.82,2.51.82,2.28,0,4.01-1.75,5.22-5.23l.43-1.2c-.97-.99-1.73-2.11-2.28-3.37l-5.88-13.18c-.56-1.27-1.07-2.17-1.52-2.72-.45-.55-1.05-.99-1.81-1.33l4.3-.19c.62-.02,1.05,0,1.32.08.27.06.6.53.95,1.39l6.79,15.66,4.67-12.12c.45-1.18.68-2.11.68-2.76,0-.78-.43-1.45-1.3-2.07h6.23Z"/>
      </g>
      <g>
        <polygon class="st2" points="596.96 183.67 572.95 173.62 576.9 180.58 344.87 180.58 349.56 186.77 576.9 186.77 572.95 193.73 596.96 183.67"/>
        <polygon class="st2" points="337.66 180.47 342.35 186.65 344.89 186.65 340.2 180.47 337.66 180.47"/>
        <polygon class="st2" points="327.65 180.47 332.34 186.65 338.49 186.65 333.8 180.47 327.65 180.47"/>
      </g>
    </g>
    <path class="st2" d="M227.45,154.06l56.01-3.65-60.07-3.91V1.07l-70.79,70.79-3.67-56.4-3.9,60.07H0l71.17,71.17-56.78,3.7,60.07,3.91v144.62s70.79-70.79,70.79-70.79l3.67,56.4,3.91-60.07h145.02l-70.41-70.41ZM208.7,96.01l-1.95,37.18-37.18-1.95,39.13-35.23ZM132.32,92l-1.95,37.18-35.23-39.13,37.18,1.95ZM89.17,203.99l1.95-37.18,37.18,1.95-39.13,35.23ZM150.61,224.47l-1.68,25.81-1.58-24.23-3.83-58.79v-.06c-5.5-1.73-9.86-6.03-11.69-11.49h-.02l-57.35-3.73-25.81-1.68,24.52-1.6,58.47-3.81c1.69-5.75,6.18-10.31,11.89-12.1l3.72-57.27,1.68-25.81,1.58,24.23,3.83,58.76v.09c5.71,1.79,10.19,6.35,11.88,12.11l57.18,3.72,25.81,1.68-23.95,1.56-59.04,3.85h-.19c-1.82,5.46-6.19,9.76-11.69,11.49l-3.72,57.27ZM165.54,208l1.95-37.18,35.23,39.13-37.18-1.95Z"/>
  </g>
</svg>