<svg width="24" height="24" viewBox="0 0 24 24" fill="none" xmlns="http://www.w3.org/2000/svg">
  <g id="ca41236f">
    <g id="9bb773fe">
      <path id="8f2bc507" d="M24 12C24 5.37258 18.6274 0 12 0C5.37258 0 0 5.37258 0 12C0 18.6274 5.37258 24 12 24C18.6274 24 24 18.6274 24 12Z" fill="#17A562"></path>
      <path id="6813baf4" d="M23.0769 12C23.0769 5.8824 18.1176 0.923096 12 0.923096C5.88237 0.923096 0.923065 5.8824 0.923065 12C0.923065 18.1176 5.88237 23.0769 12 23.0769C18.1176 23.0769 23.0769 18.1176 23.0769 12Z" stroke="white"></path>
    </g>
    <path id="c208488a" d="M8.30768 12L11.0769 14.7692L15.6923 10.1538" stroke="white" stroke-linecap="round" stroke-linejoin="round"></path>
  </g>
</svg>