<svg width="18" height="18" viewBox="0 0 18 18" fill="none" xmlns="http://www.w3.org/2000/svg">
  <g id="dd9bb957">
    <path id="92f5e0f3" d="M17.0001 8C16.7556 6.24022 15.9392 4.60966 14.6768 3.3595C13.4143 2.10933 11.7759 1.30892 10.0138 1.08155C8.25171 0.854187 6.46374 1.21248 4.92532 2.10125C3.3869 2.99001 2.18337 4.35994 1.50012 6M1.00012 1V6H6.00012" stroke="#00FF26" stroke-opacity="0.78" stroke-width="2" stroke-linecap="round" stroke-linejoin="round"></path>
    <path id="cfdcbb03" d="M1.00012 10C1.24468 11.7598 2.06105 13.3903 3.32348 14.6405C4.58591 15.8907 6.22437 16.6911 7.98645 16.9184C9.74854 17.1458 11.5365 16.7875 13.0749 15.8988C14.6133 15.01 15.8169 13.6401 16.5001 12M17.0001 17V12H12.0001" stroke="#00FF26" stroke-opacity="0.78" stroke-width="2" stroke-linecap="round" stroke-linejoin="round"></path>
  </g>
</svg>