<svg width="24" height="24" viewBox="0 0 24 24" fill="none" xmlns="http://www.w3.org/2000/svg">
  <g id="a283b0e7">
    <g id="ce727910">
      <g id="4058a85d">
        <path id="0b767281" d="M8.99121 19.8929V17.1289C8.99306 16.7901 9.1287 16.4658 9.36865 16.2266C9.6086 15.9874 9.93341 15.8527 10.2722 15.8519H12.8721C13.0406 15.851 13.2077 15.8833 13.3638 15.947C13.5198 16.0107 13.6619 16.1046 13.7817 16.2231C13.9015 16.3417 13.9967 16.4828 14.062 16.6382C14.1273 16.7936 14.1613 16.9603 14.1621 17.1289V19.897C14.1621 20.1853 14.2753 20.462 14.4773 20.6677C14.6793 20.8734 14.9539 20.9917 15.2422 20.9969H16.9741C17.3825 20.9993 17.7873 20.9212 18.1655 20.7671C18.5438 20.613 18.888 20.3859 19.1785 20.0988C19.4689 19.8116 19.6999 19.4702 19.8584 19.0938C20.0169 18.7173 20.0997 18.3133 20.1021 17.9049V10.049C20.0965 9.71697 20.0157 9.39057 19.8657 9.09436C19.7157 8.79815 19.5004 8.53979 19.2361 8.33887L13.3142 3.61096C12.809 3.21149 12.1836 2.99414 11.5396 2.99414C10.8955 2.99414 10.2703 3.21149 9.76514 3.61096L3.86499 8.3429C3.59942 8.54357 3.38351 8.80239 3.2334 9.09949C3.08329 9.39658 3.00301 9.72405 2.99902 10.0569V17.8989C3.00326 18.7238 3.33493 19.5134 3.92114 20.0938C4.50735 20.6741 5.30008 20.9979 6.125 20.9939H7.85913C8.00511 20.9947 8.14975 20.9668 8.28491 20.9116C8.42007 20.8565 8.54299 20.7751 8.64673 20.6724C8.75047 20.5696 8.8329 20.4476 8.8894 20.313C8.94591 20.1784 8.97542 20.0339 8.97607 19.8879" stroke="#869AB8" stroke-width="2" stroke-linecap="round" stroke-linejoin="round"></path>
      </g>
    </g>
  </g>
</svg>