<svg width="100" height="100" viewBox="0 0 100 100" fill="none" xmlns="http://www.w3.org/2000/svg">
<path d="M0 50C0 10 10 0 50 0C90 0 100 10 100 50C100 90 90 100 50 100C10 100 0 90 0 50Z" fill="url(#paint0_linear_2001_3732)"/>
<g filter="url(#filter0_d_2001_3732)">
<path fill-rule="evenodd" clip-rule="evenodd" d="M72.7526 27.4999C74.1333 27.4999 75.2656 28.622 75.1264 29.9957C74.8805 32.4225 74.2766 34.8053 73.3303 37.067C72.0613 40.1001 70.2012 42.8561 67.8563 45.1776C65.5114 47.499 62.7276 49.3405 59.6639 50.5969C56.6001 51.8533 53.3164 52.4999 50.0002 52.4999C46.684 52.4999 43.4003 51.8533 40.3366 50.5969C37.2728 49.3405 34.489 47.499 32.1441 45.1776C29.7992 42.8561 27.9392 40.1001 26.6701 37.067C25.7238 34.8053 25.12 32.4225 24.874 29.9957C24.7348 28.622 25.8672 27.4999 27.2479 27.4999H33.6764C35.0571 27.4999 36.1531 28.6284 36.4063 29.9857C36.5819 30.9266 36.857 31.849 37.2286 32.7372C37.9233 34.3976 38.9416 35.9063 40.2253 37.1772C41.5089 38.448 43.0329 39.4561 44.7101 40.1439C46.3872 40.8316 48.1848 41.1856 50.0002 41.1856C51.8156 41.1856 53.6132 40.8316 55.2904 40.1439C56.9676 39.4561 58.4915 38.448 59.7752 37.1772C61.0588 35.9063 62.0771 34.3976 62.7718 32.7372C63.1434 31.849 63.4186 30.9266 63.5941 29.9857C63.8474 28.6284 64.9434 27.4999 66.3241 27.4999H72.7526ZM33.4483 52.9562C28.9999 50.3058 26.6409 47.5908 24.9546 44.984C24.4846 44.2573 23.3205 44.5151 23.2501 45.3778L21.2584 69.7966C21.1397 71.2527 22.2893 72.4999 23.7502 72.4999H26.5738C30.5203 72.4999 33.7916 69.4414 34.0568 65.5038L34.7403 55.3538C34.8061 54.3768 34.2895 53.4574 33.4483 52.9562ZM75.0489 44.9862C73.3721 47.5929 71.0326 50.3077 66.5873 52.9578C65.7478 53.4583 65.2314 54.3751 65.295 55.3504L65.9566 65.4883C66.2139 69.4324 69.4881 72.4999 73.4406 72.4999H76.2499C77.7107 72.4999 78.8603 71.2527 78.7416 69.7966L76.7498 45.3778C76.6794 44.5151 75.5172 44.2583 75.0489 44.9862Z" fill="white"/>
</g>
<defs>
<filter id="filter0_d_2001_3732" x="17.25" y="25.4999" width="65.5" height="53" filterUnits="userSpaceOnUse" color-interpolation-filters="sRGB">
<feFlood flood-opacity="0" result="BackgroundImageFix"/>
<feColorMatrix in="SourceAlpha" type="matrix" values="0 0 0 0 0 0 0 0 0 0 0 0 0 0 0 0 0 0 127 0" result="hardAlpha"/>
<feOffset dy="2"/>
<feGaussianBlur stdDeviation="2"/>
<feComposite in2="hardAlpha" operator="out"/>
<feColorMatrix type="matrix" values="0 0 0 0 0.182083 0 0 0 0 0.243258 0 0 0 0 0.316667 0 0 0 0.16 0"/>
<feBlend mode="normal" in2="BackgroundImageFix" result="effect1_dropShadow_2001_3732"/>
<feBlend mode="normal" in="SourceGraphic" in2="effect1_dropShadow_2001_3732" result="shape"/>
</filter>
<linearGradient id="paint0_linear_2001_3732" x1="50" y1="0" x2="50" y2="100" gradientUnits="userSpaceOnUse">
<stop stop-color="#3DC9F9"/>
<stop offset="1" stop-color="#02A3EC"/>
</linearGradient>
</defs>
</svg>
