<svg width="48" height="48" viewBox="0 0 48 48" fill="none" xmlns="http://www.w3.org/2000/svg">
  <g id="cc79ff23">
    <path id="6f39a5bd" d="M36 0H12C5.37258 0 0 5.37258 0 12V36C0 42.6274 5.37258 48 12 48H36C42.6274 48 48 42.6274 48 36V12C48 5.37258 42.6274 0 36 0Z" fill="url(#c439b525)"></path>
    <g id="c085bcf8">
      <path id="1d162c0b" d="M24.001 39.001C32.2852 39.001 39.001 32.2852 39.001 24.001C39.001 15.7167 32.2852 9.00098 24.001 9.00098C15.7167 9.00098 9.00098 15.7167 9.00098 24.001C9.00098 32.2852 15.7167 39.001 24.001 39.001Z" fill="white"></path>
      <path id="44b244db" opacity="0.7" d="M38.991 24.5C38.9443 26.6189 38.4371 28.7023 37.5046 30.6056C36.5721 32.5089 35.2367 34.1865 33.591 35.522L28.099 31.368C28.185 31.263 33.571 24.594 33.513 24.375L38.991 24.5Z" fill="url(#df7bb12d)"></path>
      <path id="c7c8cf63" d="M35.501 37.814C35.501 37.9699 35.4703 38.1243 35.4105 38.2684C35.3508 38.4125 35.2633 38.5434 35.153 38.6536C35.0426 38.7639 34.9117 38.8513 34.7675 38.9109C34.6234 38.9705 34.4689 39.0011 34.313 39.0009H23.013C23.013 39.0009 23.151 34.4009 23.151 32.8929C24.847 32.751 26.4934 32.2499 27.981 31.4229L28.167 31.3039C28.3873 31.1872 28.6361 31.1347 28.8848 31.1524C29.1336 31.1701 29.3723 31.2573 29.574 31.404L29.863 31.693L35.202 37.0319C35.3943 37.2471 35.5001 37.5254 35.501 37.814Z" fill="white"></path>
      <path id="d76ba339" d="M23.999 32.4309C28.6564 32.4309 32.432 28.6554 32.432 23.9979C32.432 19.3405 28.6564 15.5649 23.999 15.5649C19.3416 15.5649 15.566 19.3405 15.566 23.9979C15.566 28.6554 19.3416 32.4309 23.999 32.4309Z" fill="#21B6EB"></path>
    </g>
  </g>
  <defs>
    <linearGradient id="c439b525" x1="26.352" y1="-12.528" x2="38.4" y2="38.4" gradientUnits="userSpaceOnUse">
      <stop stop-color="#53D7FE"></stop>
      <stop offset="1" stop-color="#02A3EC"></stop>
    </linearGradient>
    <linearGradient id="df7bb12d" x1="35.0263" y1="37.7291" x2="32.2151" y2="25.6628" gradientUnits="userSpaceOnUse">
      <stop stop-color="#00BAFD"></stop>
      <stop offset="0.09" stop-color="#00BBFB" stop-opacity="0.839"></stop>
      <stop offset="0.76" stop-color="#00C0F2" stop-opacity="0.071"></stop>
      <stop offset="0.88" stop-color="#00C0F1" stop-opacity="0.02"></stop>
      <stop offset="1" stop-color="#00C0F1" stop-opacity="0"></stop>
    </linearGradient>
  </defs>
</svg>