<svg width="40" height="40" viewBox="0 0 40 40" fill="none" xmlns="http://www.w3.org/2000/svg">
  <g id="f12a9946">
    <path id="9fa466ee" d="M40.001 12.512C40.001 12.032 40.001 11.5569 40.001 11.0789C40.001 10.6789 39.994 10.2791 39.983 9.87207C39.9718 8.99186 39.8945 8.11353 39.752 7.24487C39.6035 6.37524 39.3261 5.53262 38.929 4.74487C38.1234 3.16323 36.8376 1.87755 35.256 1.07202C34.4682 0.674834 33.6256 0.397447 32.756 0.249023C31.887 0.106579 31.0086 0.0294068 30.1281 0.0180664C29.7281 0.00806641 29.328 0.003 28.92 0C28.443 0 27.9651 0 27.4871 0H12.5131C12.0351 0 11.557 0 11.08 0C10.68 0 10.275 0.00706641 9.87305 0.0180664C8.99251 0.0293844 8.114 0.106557 7.245 0.249023C6.37534 0.397389 5.53272 0.674779 4.745 1.07202C3.16335 1.87755 1.87755 3.16323 1.07202 4.74487C0.67446 5.53246 0.397054 6.37514 0.249023 7.24487C0.106189 8.1135 0.0288911 8.99185 0.0179443 9.87207C0.00727767 10.2721 0.00133333 10.6745 0 11.0798C0 11.5568 0 12.0339 0 12.5129V27.4871C0 27.9651 0 28.4419 0 28.9199C0 29.3199 0.00594434 29.7223 0.0179443 30.127C0.0289138 31.0072 0.106211 31.8853 0.249023 32.7539C0.397229 33.6236 0.674627 34.4662 1.07202 35.2539C1.87828 36.8348 3.16391 38.1202 4.745 38.926C5.53263 39.3235 6.37528 39.6009 7.245 39.749C8.11393 39.8921 8.99248 39.9693 9.87305 39.98C10.273 39.991 10.673 39.996 11.08 39.998C11.557 39.998 12.0351 39.998 12.5131 39.998H27.4871C27.9651 39.998 28.443 39.998 28.92 39.998C29.32 39.998 29.72 39.991 30.127 39.98C31.0075 39.9692 31.8861 39.8921 32.755 39.749C33.6247 39.6008 34.4673 39.3234 35.255 38.926C36.8359 38.12 38.1215 36.8346 38.928 35.2539C39.325 34.4661 39.6024 33.6235 39.751 32.7539C39.8935 31.8852 39.9708 31.0072 39.9821 30.127C39.9931 29.727 39.997 29.3269 40 28.9199C40 28.4419 40 27.9651 40 27.4871L40.001 12.512Z" fill="url(#f490c775)"></path>
    <g id="f1056098">
      <g id="069cf219" filter="url(#0072558c)">
        <path id="f36f0249" d="M21.004 6.79895C18.6046 6.80621 16.2985 7.7291 14.5564 9.37903C12.8143 11.029 11.7676 13.2814 11.63 15.6769C11.62 15.8509 11.604 16.0229 11.604 16.1989V34.9989H13.542C14.6898 34.9989 15.7908 34.543 16.6024 33.7313C17.4141 32.9197 17.87 31.8189 17.87 30.671V25.0529V16.1989C17.8698 15.5177 18.0918 14.8551 18.5022 14.3114C18.9126 13.7677 19.4891 13.3728 20.1443 13.1864C20.7995 13 21.4977 13.0325 22.1328 13.2787C22.7679 13.5249 23.3053 13.9716 23.6637 14.5509C24.022 15.1302 24.1817 15.8104 24.1184 16.4886C24.0551 17.1669 23.7724 17.8062 23.3131 18.3092C22.8538 18.8122 22.243 19.1518 21.5732 19.2762C20.9035 19.4007 20.2115 19.3033 19.6021 18.9989V25.4879C19.9954 25.5485 20.3922 25.5835 20.79 25.5929H21.0031C21.0841 25.5929 21.165 25.5929 21.245 25.5929C21.325 25.5929 21.406 25.5879 21.486 25.5839C21.566 25.5799 21.646 25.575 21.726 25.568C23.9624 25.3954 26.0635 24.4288 27.6497 22.8427C29.2358 21.2565 30.2024 19.1555 30.375 16.9191C30.382 16.8391 30.386 16.7588 30.39 16.6788C30.394 16.5988 30.397 16.5179 30.399 16.4379C30.401 16.3579 30.399 16.2769 30.399 16.1959C30.3983 13.7043 29.4082 11.3149 27.6465 9.55286C25.8848 7.79081 23.4957 6.80028 21.004 6.79895Z" fill="white"></path>
      </g>
      <path id="e13c2a2a" d="M24.137 16.199C24.1363 16.7327 23.9993 17.2574 23.739 17.7234C23.4788 18.1894 23.1038 18.5811 22.6497 18.8616C22.1956 19.142 21.6774 19.3019 21.1442 19.3259C20.611 19.35 20.0806 19.2374 19.6031 18.999V25.488C19.9965 25.5469 20.3933 25.5802 20.791 25.5879C20.862 25.5879 20.9331 25.5879 21.0041 25.5879C21.0751 25.5879 21.166 25.5879 21.247 25.5879C21.328 25.5879 21.4081 25.5879 21.4881 25.5789C21.5681 25.5699 21.6481 25.57 21.7281 25.563C23.9645 25.3904 26.0655 24.4238 27.6516 22.8376C29.2378 21.2515 30.2044 19.1505 30.377 16.9141C30.384 16.8341 30.388 16.7551 30.392 16.6741C30.396 16.5931 30.399 16.5129 30.401 16.4329C30.403 16.3529 30.401 16.2719 30.401 16.1909L24.137 16.199Z" fill="white"></path>
    </g>
  </g>
  <defs>
    <filter id="0072558c" x="10.604" y="6.79895" width="20.7959" height="30.2" filterUnits="userSpaceOnUse" color-interpolation-filters="sRGB">
      <feFlood flood-opacity="0" result="BackgroundImageFix"></feFlood>
      <feColorMatrix in="SourceAlpha" type="matrix" values="0 0 0 0 0 0 0 0 0 0 0 0 0 0 0 0 0 0 127 0" result="hardAlpha"></feColorMatrix>
      <feOffset dy="1"></feOffset>
      <feGaussianBlur stdDeviation="0.5"></feGaussianBlur>
      <feColorMatrix type="matrix" values="0 0 0 0 0 0 0 0 0 0 0 0 0 0 0 0 0 0 0.161 0"></feColorMatrix>
      <feBlend mode="normal" in2="BackgroundImageFix" result="effect1_dropShadow_2019_3138"></feBlend>
      <feBlend mode="normal" in="SourceGraphic" in2="effect1_dropShadow_2019_3138" result="shape"></feBlend>
    </filter>
    <linearGradient id="f490c775" x1="20.0005" y1="0" x2="20.0005" y2="39.998" gradientUnits="userSpaceOnUse">
      <stop stop-color="#50B83C"></stop>
      <stop offset="1" stop-color="#01A38A"></stop>
    </linearGradient>
  </defs>
</svg>