<svg width="72" height="72" viewBox="0 0 72 72" fill="none" xmlns="http://www.w3.org/2000/svg">
  <g id="a40eb82e">
    <path id="5df1a758" d="M72 22.523C72 21.659 72 20.804 72 19.943C72 19.223 71.987 18.494 71.968 17.771C71.9485 16.1865 71.8098 14.6057 71.553 13.042C71.2861 11.4765 70.7866 9.95973 70.071 8.542C68.6211 5.69525 66.3067 3.38091 63.46 1.931C62.0422 1.21753 60.5258 0.719711 58.961 0.454C57.3967 0.196558 55.8152 0.0571651 54.23 0.037C53.505 0.018 52.782 0.009 52.056 0C51.2 0 50.337 0 49.477 0H22.523C21.663 0 20.803 0 19.944 0C19.219 0 18.495 0.013 17.771 0.032C16.1861 0.0518166 14.605 0.190876 13.041 0.448C11.4756 0.715196 9.95885 1.21471 8.541 1.93C5.69535 3.38206 3.38275 5.69815 1.935 8.546C1.21943 9.96373 0.719904 11.4805 0.453 13.046C0.196454 14.608 0.0577299 16.1872 0.038 17.77C0.0186667 18.494 0.008 19.2187 0.006 19.944C0 20.8 0 21.663 0 22.523V49.477C0 50.337 0 51.196 0.006 52.057C0.01 52.7803 0.0206667 53.5043 0.038 54.229C0.0574178 55.8138 0.196143 57.395 0.453 58.959C0.720006 60.5245 1.21953 62.0412 1.935 63.459C3.38631 66.3045 5.7003 68.6181 8.546 70.069C9.96202 70.7834 11.4767 71.2825 13.04 71.55C14.604 71.8071 16.1851 71.9462 17.77 71.966C18.49 71.985 19.219 71.993 19.943 71.998C20.8 71.998 21.663 71.998 22.523 71.998H49.477C50.337 71.998 51.198 71.998 52.057 71.998C52.782 71.998 53.506 71.985 54.23 71.966C55.8149 71.9461 57.396 71.8071 58.96 71.55C60.5233 71.2825 62.038 70.7834 63.454 70.069C66.2997 68.6181 68.6137 66.3045 70.065 63.459C70.7805 62.0412 71.28 60.5245 71.547 58.959C71.8038 57.3953 71.9425 55.8145 71.962 54.23C71.981 53.506 71.989 52.781 71.994 52.058C72 51.2 72 50.338 72 49.478V22.523Z" fill="url(#d4f28886)"></path>
    <path id="f13bcd9b" d="M36.245 20.162C35.0107 20.162 33.8269 20.6523 32.9541 21.5251C32.0813 22.3979 31.591 23.5817 31.591 24.816C31.5913 26.0498 32.0814 27.233 32.9538 28.1055C33.8261 28.978 35.0092 29.4685 36.243 29.469C37.4766 29.4682 38.6595 28.9776 39.5316 28.1052C40.4037 27.2327 40.8937 26.0496 40.894 24.816C40.894 23.5825 40.4044 22.3995 39.5326 21.5269C38.6609 20.6542 37.4785 20.1633 36.245 20.162Z" fill="white"></path>
    <g id="bec5705d" filter="url(#500f9d50)">
      <path id="6cd1ca94" d="M47.904 10.8H24.46C22.3658 10.8 20.3573 11.6315 18.876 13.1118C17.3946 14.592 16.5616 16.5999 16.56 18.694V53C16.56 55.0953 17.3923 57.1047 18.8739 58.5862C20.3554 60.0677 22.3648 60.9 24.46 60.9H40.104C40.9725 60.9 41.8322 60.7256 42.632 60.387C43.4318 60.0484 44.1554 59.5526 44.76 58.9291L53.97 49.4291C55.1434 48.2193 55.7997 46.6003 55.8 44.9151V18.694C55.7984 16.6006 54.9659 14.5933 53.4854 13.1132C52.0049 11.6331 49.9975 10.8011 47.904 10.8ZM20.88 53V18.694C20.8803 18.2243 20.9731 17.7592 21.1532 17.3253C21.3332 16.8914 21.597 16.4972 21.9295 16.1653C22.262 15.8334 22.6566 15.5703 23.0908 15.3909C23.5249 15.2116 23.9902 15.1195 24.46 15.12H47.904C48.8521 15.12 49.7613 15.4965 50.4319 16.1667C51.1025 16.8369 51.4795 17.746 51.48 18.694V44.64H47.012C45.0466 44.64 43.1616 45.4207 41.7716 46.8103C40.3817 48.1999 39.6005 50.0846 39.6 52.05V56.5821H24.46C23.9895 56.5826 23.5236 56.4903 23.0889 56.3104C22.6542 56.1306 22.2592 55.8667 21.9267 55.534C21.5941 55.2012 21.3305 54.8061 21.1509 54.3713C20.9713 53.9365 20.8792 53.4705 20.88 53Z" fill="white"></path>
    </g>
    <path id="b0dcc09d" d="M36.245 30.644C34.137 30.6441 32.0805 31.2954 30.3567 32.5088C28.633 33.7223 27.3261 35.4386 26.615 37.423C26.4989 37.7458 26.4621 38.0918 26.5078 38.4318C26.5535 38.7718 26.6802 39.0958 26.8774 39.3765C27.0746 39.6572 27.3364 39.8864 27.6407 40.0447C27.945 40.203 28.283 40.2858 28.626 40.286H43.864C44.2069 40.2857 44.5448 40.2029 44.849 40.0447C45.1532 39.8864 45.4149 39.6574 45.6121 39.3768C45.8092 39.0962 45.936 38.7724 45.9818 38.4325C46.0275 38.0927 45.9909 37.7468 45.875 37.424C45.1641 35.4394 43.8573 33.7229 42.1336 32.5092C40.4098 31.2956 38.3532 30.6442 36.245 30.644Z" fill="white"></path>
    <path id="3597cc64" d="M36.45 44.3779H25.47C24.6747 44.3779 24.03 45.0226 24.03 45.8179C24.03 46.6132 24.6747 47.2579 25.47 47.2579H36.45C37.2453 47.2579 37.89 46.6132 37.89 45.8179C37.89 45.0226 37.2453 44.3779 36.45 44.3779Z" fill="white"></path>
    <path id="4360f30d" d="M34.215 49.9409H25.545C24.7497 49.9409 24.105 50.5856 24.105 51.3809C24.105 52.1762 24.7497 52.8209 25.545 52.8209H34.215C35.0103 52.8209 35.655 52.1762 35.655 51.3809C35.655 50.5856 35.0103 49.9409 34.215 49.9409Z" fill="white"></path>
  </g>
  <defs>
    <filter id="500f9d50" x="15.56" y="10.8" width="41.24" height="52.1" filterUnits="userSpaceOnUse" color-interpolation-filters="sRGB">
      <feFlood flood-opacity="0" result="BackgroundImageFix"></feFlood>
      <feColorMatrix in="SourceAlpha" type="matrix" values="0 0 0 0 0 0 0 0 0 0 0 0 0 0 0 0 0 0 127 0" result="hardAlpha"></feColorMatrix>
      <feOffset dy="1"></feOffset>
      <feGaussianBlur stdDeviation="0.5"></feGaussianBlur>
      <feColorMatrix type="matrix" values="0 0 0 0 0 0 0 0 0 0 0 0 0 0 0 0 0 0 0.161 0"></feColorMatrix>
      <feBlend mode="normal" in2="BackgroundImageFix" result="effect1_dropShadow_2019_3199"></feBlend>
      <feBlend mode="normal" in="SourceGraphic" in2="effect1_dropShadow_2019_3199" result="shape"></feBlend>
    </filter>
    <linearGradient id="d4f28886" x1="36" y1="0" x2="36" y2="71.998" gradientUnits="userSpaceOnUse">
      <stop stop-color="#19C6FB"></stop>
      <stop offset="1" stop-color="#1D71F1"></stop>
    </linearGradient>
  </defs>
</svg>