<svg width="24" height="24" viewBox="0 0 24 24" fill="none" xmlns="http://www.w3.org/2000/svg">
  <g id="157f8008">
    <mask id="6be086e9" style="mask-type:luminance" maskUnits="userSpaceOnUse" x="0" y="0" width="24" height="24">
      <g id="e8f5b4bf">
        <path id="0cfea5ea" d="M24 0H0V24H24V0Z" fill="white"></path>
      </g>
    </mask>
    <g mask="url(#6be086e9)">
      <g id="2f90102d">
        <path id="962050e5" d="M18 11.6001V9.30005C18.0262 7.7017 17.4325 6.15529 16.3433 4.9852C15.2541 3.8151 13.7542 3.11225 12.158 3.02405C11.3569 3.00295 10.5597 3.14255 9.81336 3.43462C9.06707 3.72668 8.38686 4.16529 7.81286 4.72456C7.23887 5.28383 6.78273 5.95242 6.47137 6.69086C6.16001 7.42931 5.99974 8.22265 6.00002 9.02405V11.6001C6.00002 14.4281 3.42902 15.1141 3.42902 16.7421C3.42902 18.2001 6.77102 19.3101 12 19.3101C17.229 19.3101 20.571 18.1961 20.571 16.7381C20.571 15.1101 18 14.4241 18 11.6001Z" stroke="#ffffffff" stroke-width="2" stroke-miterlimit="10" stroke-linecap="square"></path>
        <path id="e6b7aa63" d="M12 21.228C11.1667 21.228 10.3333 21.199 9.5 21.141C9.66581 21.6744 9.99788 22.1408 10.4477 22.472C10.8975 22.8032 11.4414 22.9819 12 22.9819C12.5586 22.9819 13.1025 22.8032 13.5523 22.472C14.0021 22.1408 14.3342 21.6744 14.5 21.141C13.7167 21.1977 12.8833 21.2267 12 21.228Z" fill="#ffffffff"></path>
      </g>
    </g>
  </g>
</svg>