<svg width="16" height="16" viewBox="0 0 16 16" fill="none" xmlns="http://www.w3.org/2000/svg">
  <g id="0868806f">
    <path id="8eaca279" d="M3 15C4.10457 15 5 14.1046 5 13C5 11.8954 4.10457 11 3 11C1.89543 11 1 11.8954 1 13C1 14.1046 1.89543 15 3 15Z" fill="#2566E9"></path>
    <path id="cc738086" d="M13 15C14.1046 15 15 14.1046 15 13C15 11.8954 14.1046 11 13 11C11.8954 11 11 11.8954 11 13C11 14.1046 11.8954 15 13 15Z" fill="#2566E9"></path>
    <path id="fe06eed4" d="M1.5 1.5H3.5V9.5H13.5" stroke="#2566E9" stroke-width="1.5" stroke-linecap="round" stroke-linejoin="round"></path>
    <path id="54c33c25" d="M11.5 1.5V7.5" stroke="#2566E9" stroke-width="1.5" stroke-linecap="round" stroke-linejoin="round"></path>
    <path id="cd928de4" d="M8.5 4.5H14.5" stroke="#2566E9" stroke-width="1.5" stroke-linecap="round" stroke-linejoin="round"></path>
  </g>
</svg>