<svg width="24" height="24" viewBox="0 0 24 24" fill="none" xmlns="http://www.w3.org/2000/svg">
  <g id="5eb919a3">
    <g id="3aaed102">
      <path id="0396a95b" d="M9.362 5.232C9.46305 5.1478 9.57971 5.08436 9.70532 5.04532C9.83092 5.00627 9.96299 4.99239 10.094 5.00447C10.2249 5.01654 10.3523 5.05434 10.4686 5.11569C10.5849 5.17704 10.688 5.26075 10.772 5.362L15.772 11.362C15.9191 11.5409 15.9995 11.7654 15.9995 11.997C15.9995 12.2286 15.9191 12.4531 15.772 12.632L10.942 18.632C10.7749 18.8389 10.5325 18.9709 10.2681 18.999C10.0036 19.0272 9.73887 18.9491 9.532 18.782C9.32513 18.6149 9.19311 18.3725 9.16498 18.1081C9.13685 17.8436 9.21491 17.5789 9.382 17.372L13.712 12.002L9.232 6.632C9.06505 6.4285 8.98508 6.16739 9.00941 5.9053C9.03375 5.64321 9.16044 5.40129 9.362 5.232Z" fill="#869AB8"></path>
    </g>
  </g>
</svg>