<svg width="24" height="24" viewBox="0 0 24 24" fill="none" xmlns="http://www.w3.org/2000/svg">
  <g id="6314222a">
    <path id="1f7eff58" d="M24 12C24 5.37258 18.6274 0 12 0C5.37258 0 0 5.37258 0 12C0 18.6274 5.37258 24 12 24C18.6274 24 24 18.6274 24 12Z" fill="#FF9100"></path>
    <g id="efe090c6">
      <path id="39befb6b" d="M17.127 13.598C16.7831 14.752 16.0764 15.7644 15.1118 16.4851C14.1471 17.2058 12.9758 17.5963 11.7717 17.5988C10.5675 17.6013 9.39467 17.2155 8.42705 16.4988C7.45943 15.7821 6.74859 14.7726 6.39999 13.62" stroke="white" stroke-width="2" stroke-linecap="round" stroke-linejoin="round"></path>
      <path id="4ba04ecb" d="M17.6 16.7811V13.5811H14.4" stroke="white" stroke-width="2" stroke-linecap="round" stroke-linejoin="round"></path>
      <path id="5edcca7c" d="M6.63199 10.42C6.97586 9.26599 7.68254 8.25356 8.64722 7.53288C9.61189 6.8122 10.7832 6.42167 11.9873 6.4192C13.1915 6.41673 14.3643 6.80246 15.3319 7.51918C16.2996 8.23589 17.0104 9.24541 17.359 10.398" stroke="white" stroke-width="2" stroke-linecap="round" stroke-linejoin="round"></path>
      <path id="e161eda4" d="M6.39999 7.19397V10.394H9.59999" stroke="white" stroke-width="2" stroke-linecap="round" stroke-linejoin="round"></path>
    </g>
  </g>
</svg>