<svg width="24" height="24" viewBox="0 0 24 24" fill="none" xmlns="http://www.w3.org/2000/svg">
  <g id="a522e1d7">
    <path id="af2013ab" opacity="0.3" d="M17.9936 14C17.4005 14 16.8207 13.8241 16.3275 13.4944C15.8343 13.1648 15.4499 12.6962 15.223 12.1481C14.996 11.5999 14.9366 10.9967 15.0523 10.4147C15.168 9.83279 15.4536 9.29824 15.8731 8.87868C16.2925 8.45912 16.8268 8.1734 17.4086 8.05765C17.9903 7.94189 18.5933 8.0013 19.1413 8.22836C19.6892 8.45543 20.1576 8.83994 20.4871 9.33329C20.8167 9.82664 20.9926 10.4067 20.9926 11C20.9926 11.7957 20.6766 12.5587 20.1142 13.1213C19.5518 13.6839 18.789 14 17.9936 14ZM8.99681 11C8.20597 11 7.43288 10.7654 6.77532 10.3259C6.11776 9.88635 5.60525 9.26164 5.30261 8.53074C4.99996 7.79983 4.92078 6.99556 5.07506 6.21964C5.22935 5.44372 5.61018 4.73098 6.16939 4.17157C6.7286 3.61216 7.44108 3.2312 8.21673 3.07686C8.99238 2.92252 9.79636 3.00173 10.527 3.30448C11.2577 3.60723 11.8821 4.11992 12.3215 4.77772C12.7609 5.43552 12.9954 6.20888 12.9954 7C12.9954 8.06087 12.5741 9.07828 11.8242 9.82843C11.0744 10.5786 10.0573 11 8.99681 11Z" fill="#2566E9"></path>
    <path id="7d974a91" d="M17.5938 15C20.9996 15.038 23.7796 16.76 23.9915 20.4C24.0057 20.4769 24.0021 20.556 23.9808 20.6313C23.9595 20.7065 23.9212 20.7759 23.8688 20.8339C23.8164 20.8919 23.7513 20.9371 23.6786 20.9659C23.6059 20.9947 23.5276 21.0064 23.4497 21H19.5931C19.5958 18.8359 18.894 16.7297 17.5938 15ZM0 20.2C0.387862 15.426 4.25849 13 8.97981 13C13.7661 13 17.6937 15.293 17.9936 20.2C18.0117 20.3048 18.0053 20.4124 17.9747 20.5143C17.9442 20.6162 17.8904 20.7096 17.8176 20.7872C17.7448 20.8648 17.655 20.9244 17.5553 20.9613C17.4556 20.9982 17.3486 21.0115 17.2429 21H0.726742C0.54735 20.9399 0.386351 20.8348 0.25912 20.6948C0.13189 20.5547 0.0426766 20.3844 0 20.2Z" fill="#2566E9"></path>
  </g>
</svg>