<svg width="24" height="24" viewBox="0 0 24 24" fill="none" xmlns="http://www.w3.org/2000/svg">
  <g id="30efd6f8">
    <path id="03151be1" d="M12 24C18.6274 24 24 18.6274 24 12C24 5.37258 18.6274 0 12 0C5.37258 0 0 5.37258 0 12C0 18.6274 5.37258 24 12 24Z" fill="url(#329566f6)"></path>
    <path id="8d6736e9" d="M18.234 10.7143H17.3897C17.264 10.7137 17.1413 10.6751 17.0378 10.6037C16.9343 10.5323 16.8547 10.4314 16.8094 10.314C16.7666 10.2077 16.7237 10.1023 16.6736 9.9986C16.617 9.88036 16.599 9.74735 16.6221 9.61833C16.6452 9.48931 16.7081 9.37079 16.8021 9.27945L17.4969 8.61003C17.5558 8.5533 17.6031 8.48551 17.6359 8.41053C17.6686 8.33554 17.6864 8.25484 17.6879 8.17301C17.6895 8.09119 17.675 8.00984 17.6451 7.93364C17.6153 7.85744 17.5707 7.78787 17.514 7.72889L17.4969 7.71174L16.3706 6.62703C16.2544 6.5151 16.0994 6.45257 15.9381 6.45257C15.7768 6.45257 15.6219 6.5151 15.5057 6.62703L14.7527 7.35175C14.6646 7.43704 14.5532 7.49423 14.4326 7.51606C14.3119 7.53788 14.1875 7.52334 14.0751 7.47431C13.9491 7.41888 13.8206 7.36731 13.6894 7.3196C13.5703 7.27581 13.4675 7.19651 13.395 7.09243C13.3224 6.98835 13.2835 6.86449 13.2836 6.7376V5.76646C13.2835 5.6013 13.2178 5.44293 13.1011 5.3261C12.9843 5.20928 12.826 5.14354 12.6609 5.14331H11.3361C11.1709 5.14331 11.0124 5.20897 10.8955 5.32583C10.7787 5.44269 10.713 5.60119 10.713 5.76646V6.60946C10.7123 6.73554 10.6736 6.85847 10.602 6.96221C10.5303 7.06596 10.4291 7.1457 10.3114 7.19103C10.2054 7.23275 10.1009 7.27775 9.99772 7.32603C9.87912 7.3829 9.74563 7.40108 9.61613 7.37801C9.48664 7.35494 9.36767 7.29178 9.276 7.19745L8.60743 6.5036C8.55067 6.44464 8.48284 6.39744 8.40784 6.36469C8.33284 6.33194 8.25213 6.31429 8.1703 6.31274C8.08848 6.31119 8.00717 6.32577 7.93098 6.35565C7.8548 6.38553 7.78522 6.43012 7.72627 6.48689L7.70956 6.5036L6.62484 7.63031C6.51291 7.74645 6.45039 7.90145 6.45039 8.06274C6.45039 8.22403 6.51291 8.37904 6.62484 8.49517L7.34957 9.24817C7.43484 9.33626 7.49199 9.44771 7.51374 9.56837C7.53549 9.68902 7.52085 9.81342 7.4717 9.92574C7.41628 10.0517 7.36485 10.1803 7.31742 10.3115C7.27363 10.4306 7.19435 10.5333 7.09027 10.6059C6.98618 10.6785 6.86233 10.7174 6.73544 10.7173H5.76472C5.59956 10.7174 5.44117 10.7831 5.32435 10.8998C5.20752 11.0166 5.14178 11.1749 5.14156 11.34V12.6647C5.14156 12.83 5.20722 12.9885 5.32409 13.1054C5.44095 13.2222 5.59945 13.2879 5.76472 13.2879H6.60985C6.73589 13.2885 6.85881 13.3271 6.96257 13.3987C7.06632 13.4702 7.14608 13.5714 7.19142 13.689C7.23314 13.795 7.278 13.8996 7.326 14.0027C7.38287 14.1213 7.40105 14.2548 7.37798 14.3843C7.35491 14.5138 7.29174 14.6328 7.19741 14.7245L6.50357 15.393C6.44459 15.4498 6.39735 15.5176 6.36457 15.5925C6.33178 15.6675 6.31408 15.7482 6.31249 15.8301C6.3109 15.9119 6.32544 15.9932 6.35528 16.0694C6.38513 16.1456 6.42968 16.2152 6.48641 16.2742L6.50357 16.2913L7.62985 17.3756C7.74594 17.4876 7.90095 17.5502 8.06227 17.5502C8.22359 17.5502 8.37863 17.4876 8.49471 17.3756L9.24772 16.6509C9.33581 16.5656 9.44727 16.5085 9.56792 16.4867C9.68858 16.465 9.81297 16.4796 9.92529 16.5287C10.0516 16.5842 10.1801 16.6356 10.311 16.683C10.4301 16.7268 10.5329 16.8061 10.6054 16.9102C10.678 17.0143 10.7169 17.1381 10.7169 17.265V18.2362C10.717 18.4014 10.7827 18.5597 10.8995 18.6765C11.0164 18.7933 11.1748 18.8589 11.34 18.8589H12.6647C12.83 18.8589 12.9885 18.7932 13.1053 18.6764C13.2222 18.5595 13.2878 18.401 13.2878 18.2357V17.3923C13.2885 17.2663 13.3271 17.1433 13.3986 17.0396C13.4702 16.9358 13.5714 16.8561 13.689 16.8107C13.795 16.769 13.8996 16.724 14.0027 16.6757C14.1213 16.6189 14.2548 16.6007 14.3843 16.6238C14.5138 16.6468 14.6328 16.71 14.7244 16.8043L15.393 17.4982C15.5076 17.6172 15.6647 17.6858 15.8298 17.689C15.995 17.6922 16.1546 17.6298 16.2737 17.5153L16.2908 17.4982L17.3756 16.3719C17.4875 16.2558 17.55 16.1007 17.55 15.9395C17.55 15.7782 17.4875 15.6232 17.3756 15.507L16.6509 14.754C16.5656 14.6659 16.5084 14.5545 16.4867 14.4338C16.4649 14.3132 16.4796 14.1888 16.5287 14.0765C16.5841 13.9505 16.6356 13.8227 16.683 13.6933C16.7268 13.5742 16.8061 13.4714 16.9102 13.3988C17.0142 13.3263 17.1381 13.2874 17.265 13.2874H18.2361C18.4013 13.2873 18.5597 13.2216 18.6765 13.1048C18.7932 12.9879 18.8588 12.8295 18.8588 12.6643V11.3396C18.8591 11.2574 18.8432 11.176 18.8119 11.1001C18.7806 11.0241 18.7346 10.9551 18.6765 10.897C18.6184 10.8389 18.5494 10.7928 18.4735 10.7615C18.3975 10.7301 18.3161 10.7141 18.234 10.7143ZM12 14.7069C11.4646 14.7069 10.9413 14.5481 10.4961 14.2507C10.051 13.9533 9.70405 13.5305 9.49918 13.0359C9.2943 12.5413 9.24072 11.997 9.34516 11.4719C9.44961 10.9469 9.70739 10.4646 10.086 10.086C10.4645 9.70743 10.9468 9.44962 11.4719 9.34518C11.997 9.24073 12.5412 9.29434 13.0359 9.49922C13.5305 9.7041 13.9532 10.051 14.2507 10.4962C14.5481 10.9413 14.7069 11.4647 14.7069 12C14.7069 12.7179 14.4217 13.4064 13.914 13.9141C13.4064 14.4217 12.7179 14.7069 12 14.7069Z" fill="white"></path>
  </g>
  <defs>
    <linearGradient id="329566f6" x1="12" y1="0" x2="12" y2="24" gradientUnits="userSpaceOnUse">
      <stop stop-color="#5F7FA5"></stop>
      <stop offset="1" stop-color="#425974"></stop>
    </linearGradient>
  </defs>
</svg>