<svg width="48" height="48" viewBox="0 0 48 48" fill="none" xmlns="http://www.w3.org/2000/svg">
<path d="M0 24C0 4.8 4.8 0 24 0C43.2 0 48 4.8 48 24C48 43.2 43.2 48 24 48C4.8 48 0 43.2 0 24Z" fill="url(#paint0_linear_1499_89)"/>
<path fill-rule="evenodd" clip-rule="evenodd" d="M29.912 13.9854C28.8367 14.1233 27.7982 14.694 27.1207 15.3719L27.0207 15.4719L26.9182 15.5476C26.9162 15.5492 26.9133 15.5514 26.9097 15.5543C26.8922 15.5682 26.8563 15.5972 26.8009 15.6441C26.6899 15.7381 26.5021 15.9031 26.2293 16.1608C25.6832 16.6769 24.8026 17.5595 23.5238 18.981C22.342 20.2949 21.9696 21.4316 21.9727 22.3057C21.9758 23.1706 22.3464 24.0436 23.171 24.8533C23.9131 25.582 23.9243 26.7747 23.1959 27.5172C22.4675 28.2597 21.2754 28.2708 20.5333 27.5421C19.1197 26.1541 18.2144 24.3585 18.2071 22.3193C18.1998 20.2893 19.0825 18.2865 20.7249 16.4607C22.0586 14.9781 23.0105 14.0202 23.6437 13.4219C23.9606 13.1224 24.1991 12.9116 24.3672 12.7692C24.4387 12.7086 24.4976 12.6602 24.5446 12.6225C25.7479 11.4552 27.4959 10.497 29.4331 10.2485C31.4889 9.9848 33.7329 10.5326 35.5934 12.394C37.4539 14.2553 38.0014 16.5005 37.7378 18.5572C37.4838 20.5392 36.488 22.3232 35.2854 23.5289L34.4499 24.3789C33.7208 25.1207 32.5287 25.1307 31.7873 24.4013C31.0459 23.6718 31.0359 22.4791 31.765 21.7374L32.6112 20.8764L32.6168 20.8708C33.2944 20.1929 33.8649 19.1538 34.0027 18.078C34.1315 17.0737 33.8945 16.0223 32.9307 15.058C31.9669 14.0937 30.9159 13.8566 29.912 13.9854Z" fill="white"/>
<path fill-rule="evenodd" clip-rule="evenodd" d="M18.0879 34.0146C19.1632 33.8767 20.2017 33.306 20.8792 32.6281L20.9792 32.5281L21.0817 32.4524C21.0838 32.4508 21.0866 32.4486 21.0903 32.4457C21.1077 32.4318 21.1436 32.4028 21.199 32.3559C21.31 32.2619 21.4978 32.097 21.7706 31.8392C22.3167 31.3232 23.1973 30.4406 24.4761 29.019C25.6597 27.7032 26.0346 26.5655 26.0326 25.6919C26.0305 24.8298 25.6617 23.9593 24.8332 23.1509C24.0888 22.4246 24.0738 21.232 24.7998 20.4871C25.5258 19.7423 26.7179 19.7273 27.4623 20.4537C28.8862 21.843 29.7934 23.6412 29.7982 25.6831C29.803 27.7136 28.9156 29.7155 27.2751 31.5393C25.9413 33.0219 24.9895 33.9798 24.3562 34.5782C24.0393 34.8776 23.8008 35.0884 23.6327 35.2308C23.5612 35.2914 23.5023 35.3398 23.4553 35.3775C22.252 36.5448 20.504 37.503 18.5668 37.7515C16.511 38.0152 14.267 37.4674 12.4065 35.606C10.546 33.7447 9.99851 31.4996 10.2621 29.4428C10.5161 27.4608 11.5119 25.6768 12.7145 24.4711L13.55 23.6211C14.2791 22.8793 15.4712 22.8693 16.2126 23.5987C16.954 24.3282 16.964 25.5209 16.2349 26.2627L15.3887 27.1236L15.3831 27.1292C14.7055 27.8072 14.135 28.8462 13.9972 29.922C13.8684 30.9263 14.1054 31.9777 15.0692 32.942C16.033 33.9063 17.084 34.1434 18.0879 34.0146Z" fill="white"/>
<defs>
<linearGradient id="paint0_linear_1499_89" x1="24" y1="0" x2="24" y2="48" gradientUnits="userSpaceOnUse">
<stop stop-color="#1DE28B"/>
<stop offset="1" stop-color="#24B383"/>
</linearGradient>
</defs>
</svg>
