<svg width="24" height="24" viewBox="0 0 24 24" fill="none" xmlns="http://www.w3.org/2000/svg">
  <g id="e17fbdef">
    <path id="d10d753b" d="M3 20C6.33333 18 8 16 8 14C8 11 7 11 6 11C5 11 3.968 12.085 4 14C4.034 16.048 5.658 16.877 6.5 18C8 20 9 20.5 10 19C10.5496 18.1974 11.0505 17.3626 11.5 16.5C12.5 18.8333 13.8333 20 15.5 20H18" stroke="#0051FF" stroke-width="1.75" stroke-linecap="round" stroke-linejoin="round"></path>
    <g id="653aa8fc">
      <path id="b7bac87c" d="M17.2533 14.319L21.5895 5.41892C21.6734 5.19355 21.712 4.95386 21.7033 4.71354C21.6945 4.47322 21.6385 4.23698 21.5385 4.01831C21.4384 3.79964 21.2963 3.60282 21.1202 3.43909C20.944 3.27535 20.7374 3.14792 20.512 3.06406C20.3068 2.93815 20.0787 2.85394 19.8409 2.81628C19.6031 2.77861 19.3602 2.78822 19.1261 2.84455C18.892 2.90088 18.6713 3.00283 18.4766 3.14456C18.282 3.28629 18.1172 3.46502 17.9917 3.67051L13.6555 12.5706L14.7313 14.9291L17.2533 14.319Z" stroke="#0051FF" stroke-width="1.75" stroke-linecap="round" stroke-linejoin="round"></path>
      <path id="082be503" d="M17.269 5.15381L20.865 6.90581" stroke="#0051FF" stroke-width="1.75" stroke-linecap="round" stroke-linejoin="round"></path>
    </g>
  </g>
</svg>