<svg width="24" height="24" viewBox="0 0 24 24" fill="none" xmlns="http://www.w3.org/2000/svg">
  <g id="155449b3">
    <path id="a8bbfc87" d="M12.0016 24.0015C18.629 24.0015 24.0016 18.6289 24.0016 12.0015C24.0016 5.37405 18.629 0.00146484 12.0016 0.00146484C5.37414 0.00146484 0.0015564 5.37405 0.0015564 12.0015C0.0015564 18.6289 5.37414 24.0015 12.0016 24.0015Z" fill="#F0F0F0"></path>
    <g id="e0c66d1f">
      <path id="8ab6d6ec" d="M2.48155 4.69556C1.52546 5.93823 0.823131 7.35682 0.414551 8.87056H6.65755L2.48155 4.69556Z" fill="#0052B4"></path>
      <path id="8836f178" d="M23.5885 8.87056C23.1799 7.35683 22.4776 5.93824 21.5215 4.69556L17.3466 8.87056H23.5885Z" fill="#0052B4"></path>
      <path id="28128cdc" d="M0.414551 15.1316C0.823155 16.6453 1.52548 18.0639 2.48155 19.3066L6.65655 15.1316H0.414551Z" fill="#0052B4"></path>
      <path id="70f76235" d="M19.3065 2.48155C18.0639 1.52548 16.6453 0.823155 15.1316 0.414551V6.65755L19.3065 2.48155Z" fill="#0052B4"></path>
      <path id="1362355c" d="M4.69556 21.5205C5.93824 22.4765 7.35683 23.1789 8.87056 23.5875V17.3445L4.69556 21.5205Z" fill="#0052B4"></path>
      <path id="d183ee85" d="M8.87056 0.414551C7.35683 0.823155 5.93824 1.52548 4.69556 2.48155L8.87056 6.65655V0.414551Z" fill="#0052B4"></path>
      <path id="6f8091d9" d="M15.1315 23.5887C16.6453 23.18 18.0639 22.4777 19.3065 21.5217L15.1315 17.3467V23.5887Z" fill="#0052B4"></path>
      <path id="35a56199" d="M17.3456 15.1316L21.5205 19.3066C22.4766 18.0639 23.179 16.6453 23.5876 15.1316H17.3456Z" fill="#0052B4"></path>
    </g>
    <path id="921ce320" d="M23.9016 10.4366H13.5665V0.10155C12.5276 -0.03385 11.4755 -0.03385 10.4366 0.10155V10.4366H0.10155C-0.03385 11.4755 -0.03385 12.5276 0.10155 13.5665H10.4366V23.9016C11.4755 24.0369 12.5276 24.0369 13.5665 23.9016V13.5665H23.9016C24.0369 12.5276 24.0369 11.4755 23.9016 10.4366Z" fill="#D80027"></path>
    <path id="058a178d" d="M15.1316 15.1316L20.4866 20.4866C20.7326 20.2406 20.9676 19.9839 21.1916 19.7166L16.6076 15.1326H15.1316V15.1316Z" fill="#D80027"></path>
    <path id="7b7f63db" d="M8.87157 15.1316L3.51657 20.4866C3.76257 20.7326 4.01923 20.9676 4.28657 21.1916L8.87057 16.6066L8.87157 15.1316Z" fill="#D80027"></path>
    <path id="5c027e41" d="M8.87054 8.8716L3.51555 3.5166C3.26955 3.7626 3.03455 4.01926 2.81055 4.2866L7.39555 8.8716H8.87155H8.87054Z" fill="#D80027"></path>
    <path id="60d7c345" d="M15.1316 8.87055L20.4866 3.51555C20.2406 3.26955 19.9839 3.03455 19.7166 2.81055L15.1326 7.39555L15.1316 8.87055Z" fill="#D80027"></path>
  </g>
</svg>