<svg width="24" height="24" viewBox="0 0 24 24" fill="none" xmlns="http://www.w3.org/2000/svg">
  <g id="b7235d7e">
    <path id="1c779ac7" d="M24 12C24 5.37258 18.6274 0 12 0C5.37258 0 0 5.37258 0 12C0 18.6274 5.37258 24 12 24C18.6274 24 24 18.6274 24 12Z" fill="#E61D1D"></path>
    <g id="6bcbcc8a">
      <path id="63d90922" d="M8.571 16.143C8.57179 16.4459 8.69247 16.7362 8.90665 16.9503C9.12083 17.1645 9.4111 17.2852 9.714 17.286H14.285C14.5879 17.2852 14.8782 17.1645 15.0923 16.9503C15.3065 16.7362 15.4272 16.4459 15.428 16.143V9.286H8.571V16.143ZM16 7.571H14L13.429 7H10.571L10 7.571H8V8.714H16V7.571Z" fill="white"></path>
    </g>
  </g>
</svg>