<svg width="24" height="24" viewBox="0 0 24 24" fill="none" xmlns="http://www.w3.org/2000/svg">
  <g id="cc6a52d5">
    <path id="fcff137f" d="M12 14C13.1046 14 14 13.1046 14 12C14 10.8954 13.1046 10 12 10C10.8954 10 10 10.8954 10 12C10 13.1046 10.8954 14 12 14Z" stroke="#4969CF" stroke-width="2" stroke-linecap="round" stroke-linejoin="round"></path>
    <path id="2d138d77" d="M2 12L3.5 14C4.53188 15.2562 5.82937 16.2681 7.29911 16.9628C8.76886 17.6575 10.3743 18.0179 12 18.0179C13.6257 18.0179 15.2311 17.6575 16.7009 16.9628C18.1706 16.2681 19.4681 15.2562 20.5 14L22 12" stroke="#4969CF" stroke-width="2" stroke-linecap="round" stroke-linejoin="round"></path>
    <path id="18d0406d" d="M2 12.0001L3.5 10.0001C4.53188 8.74385 5.82937 7.73198 7.29911 7.03725C8.76886 6.34251 10.3743 5.98218 12 5.98218C13.6257 5.98218 15.2311 6.34251 16.7009 7.03725C18.1706 7.73198 19.4681 8.74385 20.5 10.0001L22 12.0001" stroke="#4969CF" stroke-width="2" stroke-linecap="round" stroke-linejoin="round"></path>
  </g>
</svg>