<svg width="24" height="24" viewBox="0 0 24 24" fill="none" xmlns="http://www.w3.org/2000/svg">
  <g id="b4e4d7b9">
    <path id="6d295a17" d="M24 12C24 5.37258 18.6274 0 12 0C5.37258 0 0 5.37258 0 12C0 18.6274 5.37258 24 12 24C18.6274 24 24 18.6274 24 12Z" fill="#9EA0A5"></path>
    <g id="a9e6bc34">
      <path id="ec28aff9" d="M16.628 9.05898L14.915 7.34199C14.6918 7.13127 14.3988 7.01026 14.0919 7.00215C13.7851 6.99403 13.486 7.09936 13.252 7.29798L7.62701 12.942C7.42492 13.1467 7.29925 13.4147 7.27101 13.701L7.00401 16.316C6.99577 16.4029 7.00582 16.4905 7.03352 16.5733C7.06122 16.6561 7.10595 16.7321 7.16483 16.7966C7.22371 16.861 7.29543 16.9124 7.37538 16.9474C7.45533 16.9825 7.54173 17.0004 7.62901 17H7.68401L10.29 16.762C10.5757 16.7332 10.8427 16.6067 11.046 16.404L16.671 10.759C16.8895 10.5272 17.0075 10.2184 16.9992 9.89992C16.991 9.58147 16.8582 9.27919 16.628 9.05898ZM14.504 11.154L12.827 9.47299L14.046 8.21799L15.752 9.92998L14.504 11.154Z" fill="white"></path>
    </g>
  </g>
</svg>