<svg width="24" height="24" viewBox="0 0 24 24" fill="none" xmlns="http://www.w3.org/2000/svg">
  <g id="1a44a40c">
    <g id="a92e51d4">
      <g id="f86d0fe0">
        <path id="0a7202c5" d="M16 3H8C6.34315 3 5 4.34315 5 6V18C5 19.6569 6.34315 21 8 21H16C17.6569 21 19 19.6569 19 18V6C19 4.34315 17.6569 3 16 3Z" stroke="#8E98A6" stroke-width="2" stroke-linecap="round" stroke-linejoin="round"></path>
        <g id="03b7b7b4">
          <path id="75bdf40a" d="M10 2H14" stroke="#8E98A6" stroke-width="2" stroke-linecap="round" stroke-linejoin="round"></path>
        </g>
        <g id="77d8735a">
          <path id="9a88b128" d="M10 3H14" stroke="#8E98A6" stroke-width="2" stroke-linecap="round" stroke-linejoin="round"></path>
        </g>
        <g id="93bf764c">
          <path id="4dccc855" d="M9.5 6H14.272" stroke="#8E98A6" stroke-width="2" stroke-linecap="round" stroke-linejoin="round"></path>
        </g>
      </g>
      <g id="4222367d">
        <g id="6777ef39">
          <g id="99db1942">
            <path id="7e34ee28" d="M12.151 13.0999C13.1854 13.0999 14.024 12.2613 14.024 11.2269C14.024 10.1925 13.1854 9.35388 12.151 9.35388C11.1166 9.35388 10.278 10.1925 10.278 11.2269C10.278 12.2613 11.1166 13.0999 12.151 13.0999Z" stroke="#8E98A6" stroke-width="2" stroke-linecap="round" stroke-linejoin="round"></path>
          </g>
          <g id="b65619b7">
            <path id="683ae895" d="M9.34201 18.7819V17.8459C9.34201 17.3492 9.53934 16.8727 9.8906 16.5215C10.2419 16.1702 10.7183 15.9729 11.215 15.9729H13.088C13.5848 15.9729 14.0612 16.1702 14.4124 16.5215C14.7637 16.8727 14.961 17.3492 14.961 17.8459V18.7819" stroke="#8E98A6" stroke-width="2" stroke-linecap="round" stroke-linejoin="round"></path>
          </g>
        </g>
      </g>
    </g>
  </g>
</svg>