<svg width="48" height="48" viewBox="0 0 48 48" fill="none" xmlns="http://www.w3.org/2000/svg">
<path d="M0 24C0 4.8 4.8 0 24 0C43.2 0 48 4.8 48 24C48 43.2 43.2 48 24 48C4.8 48 0 43.2 0 24Z" fill="url(#paint0_linear_177_31)"/>
<path d="M10.2 18.9251C10.2 17.5996 11.2745 16.525 12.5999 16.525H14.3106V35.7449C14.3106 36.88 13.3904 37.8002 12.2553 37.8002C11.1201 37.8002 10.2 36.88 10.2 35.7449V18.9251Z" fill="white" fill-opacity="0.32"/>
<path d="M34.2002 10.2C36.1883 10.2002 37.8002 11.8119 37.8002 13.8V34.2001C37.8002 36.1883 36.1883 37.8 34.2002 37.8002H12.5617C12.5255 37.8002 12.4901 37.7964 12.4556 37.7902C13.4966 37.6894 14.3107 36.8122 14.3107 35.7447V13.8C14.3107 11.8118 15.9225 10.2 17.9107 10.2H34.2002Z" fill="white"/>
<path opacity="0.5" d="M25.7804 30.3254C26.2567 30.3254 26.6429 30.7116 26.6429 31.1879C26.6428 31.6642 26.2567 32.0504 25.7804 32.0504H18.697C18.2207 32.0504 17.8346 31.6642 17.8345 31.1879C17.8345 30.7116 18.2207 30.3254 18.697 30.3254H25.7804ZM33.4145 26.8754C33.8908 26.8754 34.277 27.2615 34.277 27.7379C34.2769 28.2141 33.8908 28.6004 33.4145 28.6004H18.697C18.2207 28.6004 17.8346 28.2141 17.8345 27.7379C17.8345 27.2615 18.2207 26.8754 18.697 26.8754H33.4145ZM33.077 13.6501C33.7397 13.6501 34.277 14.1874 34.277 14.8501V23.9504C34.2769 24.613 33.7397 25.1504 33.077 25.1504H19.0345C18.3719 25.1504 17.8346 24.613 17.8345 23.9504V14.8501C17.8345 14.1873 18.3718 13.6501 19.0345 13.6501H33.077Z" fill="url(#paint1_linear_177_31)"/>
<defs>
<linearGradient id="paint0_linear_177_31" x1="24" y1="0" x2="24" y2="48" gradientUnits="userSpaceOnUse">
<stop stop-color="#3990FF"/>
<stop offset="1" stop-color="#2662FF"/>
</linearGradient>
<linearGradient id="paint1_linear_177_31" x1="26.0558" y1="0.999861" x2="26.0558" y2="46.7132" gradientUnits="userSpaceOnUse">
<stop stop-color="#508AFD"/>
<stop offset="1" stop-color="#4967FA"/>
</linearGradient>
</defs>
</svg>
