<svg width="56" height="56" viewBox="0 0 56 56" fill="none" xmlns="http://www.w3.org/2000/svg">
  <g id="7af3b896">
    <path id="cf4643af" d="M44 0H12C5.37258 0 0 5.37258 0 12V44C0 50.6274 5.37258 56 12 56H44C50.6274 56 56 50.6274 56 44V12C56 5.37258 50.6274 0 44 0Z" fill="url(#8dee0f76)"></path>
    <g id="13a01943">
      <g id="928c5f60">
        <g id="20ffd2ed">
          <g id="8780709d">
            <path id="3167533c" d="M22.6 27.401C24.024 27.401 25.4161 26.9787 26.6001 26.1876C27.7841 25.3964 28.707 24.2719 29.2519 22.9563C29.7969 21.6407 29.9395 20.193 29.6616 18.7963C29.3838 17.3997 28.6981 16.1167 27.6912 15.1098C26.6842 14.1029 25.4013 13.4171 24.0046 13.1393C22.608 12.8615 21.1603 13.0041 19.8447 13.549C18.529 14.094 17.4046 15.0168 16.6134 16.2009C15.8223 17.3849 15.4 18.777 15.4 20.201C15.4 22.1105 16.1586 23.9419 17.5088 25.2921C18.8591 26.6424 20.6904 27.401 22.6 27.401Z" fill="white"></path>
            <path id="9cabf732" d="M37 31.0009C38.068 31.0009 39.1121 30.6842 40.0001 30.0909C40.8881 29.4975 41.5802 28.6541 41.989 27.6674C42.3977 26.6807 42.5046 25.5949 42.2962 24.5474C42.0879 23.4999 41.5736 22.5378 40.8184 21.7826C40.0632 21.0273 39.101 20.513 38.0535 20.3047C37.006 20.0963 35.9202 20.2033 34.9335 20.612C33.9468 21.0207 33.1034 21.7128 32.5101 22.6009C31.9167 23.4889 31.6 24.5329 31.6 25.6009C31.6 27.0331 32.1689 28.4066 33.1816 29.4193C34.1943 30.432 35.5678 31.0009 37 31.0009Z" fill="white"></path>
            <path id="ccf5cffd" d="M44.2 43.601C44.6774 43.601 45.1352 43.4114 45.4728 43.0738C45.8104 42.7363 46 42.2784 46 41.801C45.9986 40.1187 45.5256 38.4705 44.6349 37.0434C43.7442 35.6163 42.4713 34.4674 40.9606 33.7271C39.45 32.9867 37.7621 32.6846 36.0885 32.855C34.4148 33.0254 32.8225 33.6615 31.492 34.691C29.7289 32.9349 27.4853 31.7401 25.0441 31.2574C22.6029 30.7747 20.0734 31.0257 17.7746 31.9787C15.4758 32.9317 13.5107 34.544 12.1271 36.6124C10.7435 38.6808 10.0034 41.1125 10 43.601C10 44.0784 10.1896 44.5363 10.5272 44.8738C10.8648 45.2114 11.3226 45.401 11.8 45.401H33.4C33.8774 45.401 34.3352 45.2114 34.6728 44.8738C35.0104 44.5363 35.2 44.0784 35.2 43.601" fill="white"></path>
          </g>
        </g>
      </g>
    </g>
  </g>
  <defs>
    <linearGradient id="8dee0f76" x1="28" y1="0" x2="28" y2="56" gradientUnits="userSpaceOnUse">
      <stop stop-color="#739ACE"></stop>
      <stop offset="1" stop-color="#3668B1"></stop>
    </linearGradient>
  </defs>
</svg>