<svg width="24" height="24" viewBox="0 0 24 24" fill="none" xmlns="http://www.w3.org/2000/svg">
  <g id="f12a9946">
    <path id="9fa466ee" d="M24 7.50754C24 7.21953 24 6.93445 24 6.64764C24 6.40763 23.9958 6.16774 23.9892 5.92353C23.9825 5.39538 23.9361 4.86836 23.8506 4.34714C23.7615 3.82533 23.5951 3.31974 23.3568 2.84706C22.8735 1.89803 22.102 1.12658 21.1531 0.643244C20.6804 0.40492 20.1749 0.23848 19.6531 0.149421C19.1317 0.0639508 18.6047 0.017645 18.0764 0.0108404C17.8364 0.00484008 17.5964 0.00180009 17.3516 0C17.0654 0 16.7786 0 16.4918 0H7.50765C7.22086 0 6.934 0 6.64781 0C6.40782 0 6.16488 0.00424005 5.92368 0.0108404C5.39537 0.0176315 4.86828 0.0639374 4.34689 0.149421C3.82511 0.238445 3.31955 0.404887 2.84693 0.643244C1.89796 1.12658 1.1265 1.89803 0.643197 2.84706C0.404666 3.31964 0.238226 3.82527 0.14941 4.34714C0.0637116 4.86834 0.0173342 5.39537 0.0107663 5.92353C0.0043665 6.16354 0.00079998 6.40501 0 6.64822C0 6.93444 0 7.22072 0 7.50813V16.493C0 16.7799 0 17.066 0 17.3528C0 17.5928 0.00356651 17.8342 0.0107663 18.0771C0.0173479 18.6052 0.0637251 19.1321 0.14941 19.6533C0.238332 20.1751 0.404766 20.6808 0.643197 21.1534C1.12694 22.1019 1.8983 22.8732 2.84693 23.3568C3.31949 23.5952 3.82508 23.7617 4.34689 23.8506C4.86824 23.9364 5.39536 23.9827 5.92368 23.9892C6.16368 23.9958 6.40362 23.9988 6.64781 24C6.934 24 7.22086 24 7.50765 24H16.4918C16.7786 24 17.0654 24 17.3516 24C17.5916 24 17.8315 23.9958 18.0757 23.9892C18.6041 23.9827 19.1312 23.9364 19.6525 23.8506C20.1743 23.7616 20.6799 23.5952 21.1525 23.3568C22.101 22.8731 22.8723 22.1018 23.3562 21.1534C23.5944 20.6807 23.7609 20.1751 23.85 19.6533C23.9355 19.1321 23.9819 18.6052 23.9886 18.0771C23.9952 17.837 23.9976 17.597 23.9994 17.3528C23.9994 17.066 23.9994 16.7799 23.9994 16.493L24 7.50754Z" fill="url(#f490c775)"></path>
    <g id="f1056098">
      <g id="069cf219" filter="url(#0072558c)">
        <path id="f36f0249" d="M12.6021 4.07959C11.1625 4.08395 9.77885 4.63771 8.73361 5.62771C7.68838 6.61772 7.06036 7.96926 6.97782 9.40661C6.97182 9.51101 6.96222 9.6142 6.96222 9.71981V21.0004H8.12498C8.81368 21.0004 9.47421 20.7268 9.96119 20.2398C10.4482 19.7528 10.7217 19.0923 10.7217 18.4035V15.0325V9.71981C10.7216 9.31107 10.8548 8.9135 11.101 8.58728C11.3473 8.26107 11.6932 8.02409 12.0863 7.91225C12.4794 7.80041 12.8983 7.81988 13.2794 7.96762C13.6604 8.11537 13.9829 8.38338 14.1979 8.73099C14.4129 9.0786 14.5086 9.48672 14.4707 9.89369C14.4327 10.3007 14.2631 10.6842 13.9875 10.9861C13.7119 11.2879 13.3454 11.4916 12.9436 11.5663C12.5418 11.641 12.1266 11.5826 11.7609 11.3999V15.2935C11.9969 15.3299 12.235 15.3509 12.4737 15.3565H12.6015C12.6501 15.3565 12.6987 15.3565 12.7467 15.3565C12.7947 15.3565 12.8433 15.3535 12.8912 15.3511C12.9392 15.3487 12.9872 15.3458 13.0352 15.3416C14.3771 15.238 15.6377 14.658 16.5894 13.7063C17.541 12.7546 18.121 11.4939 18.2245 10.152C18.2287 10.104 18.2312 10.0558 18.2336 10.0078C18.236 9.95981 18.2378 9.91122 18.239 9.86322C18.2402 9.81522 18.239 9.76665 18.239 9.71805C18.2385 8.22299 17.6445 6.7893 16.5875 5.73201C15.5305 4.67473 14.097 4.08039 12.6021 4.07959Z" fill="white"></path>
      </g>
      <path id="e13c2a2a" d="M14.4818 9.7198C14.4814 10.0401 14.3992 10.3549 14.2431 10.6345C14.0869 10.9141 13.8619 11.1492 13.5895 11.3174C13.317 11.4857 13.0061 11.5816 12.6862 11.5961C12.3663 11.6105 12.048 11.543 11.7615 11.3999V15.2935C11.9976 15.3288 12.2357 15.3488 12.4743 15.3534C12.5169 15.3534 12.5595 15.3534 12.6021 15.3534C12.6447 15.3534 12.6993 15.3534 12.7479 15.3534C12.7965 15.3534 12.8445 15.3534 12.8925 15.348C12.9405 15.3426 12.9885 15.3427 13.0365 15.3385C14.3784 15.2349 15.6389 14.6549 16.5906 13.7032C17.5422 12.7515 18.1222 11.4908 18.2257 10.1489C18.2299 10.1009 18.2323 10.0535 18.2347 10.0049C18.2371 9.95627 18.239 9.90814 18.2402 9.86014C18.2414 9.81214 18.2402 9.76357 18.2402 9.71497L14.4818 9.7198Z" fill="white"></path>
    </g>
  </g>
  <defs>
    <filter id="0072558c" x="5.96222" y="4.07959" width="13.2773" height="18.9208" filterUnits="userSpaceOnUse" color-interpolation-filters="sRGB">
      <feFlood flood-opacity="0" result="BackgroundImageFix"></feFlood>
      <feColorMatrix in="SourceAlpha" type="matrix" values="0 0 0 0 0 0 0 0 0 0 0 0 0 0 0 0 0 0 127 0" result="hardAlpha"></feColorMatrix>
      <feOffset dy="1"></feOffset>
      <feGaussianBlur stdDeviation="0.5"></feGaussianBlur>
      <feColorMatrix type="matrix" values="0 0 0 0 0 0 0 0 0 0 0 0 0 0 0 0 0 0 0.161 0"></feColorMatrix>
      <feBlend mode="normal" in2="BackgroundImageFix" result="effect1_dropShadow_2019_3138"></feBlend>
      <feBlend mode="normal" in="SourceGraphic" in2="effect1_dropShadow_2019_3138" result="shape"></feBlend>
    </filter>
    <linearGradient id="f490c775" x1="12" y1="0" x2="12" y2="24" gradientUnits="userSpaceOnUse">
      <stop stop-color="#50B83C"></stop>
      <stop offset="1" stop-color="#01A38A"></stop>
    </linearGradient>
  </defs>
</svg>