<svg width="24" height="24" viewBox="0 0 24 24" fill="none" xmlns="http://www.w3.org/2000/svg">
  <g id="d197c7a0">
    <path id="581f6070" d="M12 24C18.6274 24 24 18.6274 24 12C24 5.37258 18.6274 0 12 0C5.37258 0 0 5.37258 0 12C0 18.6274 5.37258 24 12 24Z" fill="url(#904a5b86)"></path>
    <g id="15612233">
      <path id="dec635e3" d="M12.1749 8.771C11.934 8.77094 11.6955 8.81834 11.4729 8.91047C11.2504 9.0026 11.0482 9.13767 10.8778 9.30797C10.7075 9.47826 10.5724 9.68043 10.4802 9.90295C10.388 10.1255 10.3406 10.364 10.3406 10.6049C10.3406 10.8457 10.3881 11.0841 10.4803 11.3066C10.5725 11.5291 10.7077 11.7312 10.878 11.9015C11.0483 12.0717 11.2505 12.2068 11.473 12.2989C11.6955 12.391 11.934 12.4383 12.1749 12.4383C12.6612 12.4382 13.1275 12.2449 13.4713 11.901C13.8151 11.5571 14.0083 11.0907 14.0083 10.6044C14.0082 10.1182 13.815 9.65193 13.4712 9.30812C13.1273 8.96431 12.6611 8.77111 12.1749 8.771Z" fill="white"></path>
      <path id="ca8f23ec" d="M12.8207 12.9836H11.5894C11.0172 12.9926 10.4581 13.1569 9.97181 13.4588C9.48557 13.7607 9.09044 14.189 8.82858 14.6979C9.22996 15.1896 9.73579 15.5857 10.3093 15.8576C10.8829 16.1294 11.5097 16.2701 12.1444 16.2695C12.7983 16.2697 13.4436 16.12 14.0305 15.8318C14.6175 15.5436 15.1305 15.1246 15.5302 14.6071C15.2605 14.1227 14.8682 13.7177 14.3927 13.4327C13.9171 13.1478 13.375 12.9929 12.8207 12.9836Z" fill="white"></path>
      <path id="ae4326a2" d="M19.317 16.773L17.4741 15.1801C18.0748 14.1266 18.3499 12.9189 18.265 11.7092C18.18 10.4995 17.7387 9.34205 16.9967 8.38289C16.5034 7.74494 15.8892 7.21048 15.1893 6.80996C14.4893 6.40944 13.7173 6.15075 12.9173 6.04866C12.1174 5.94658 11.3051 6.00307 10.527 6.21497C9.74891 6.42687 9.02017 6.79002 8.38244 7.28363C7.74449 7.77696 7.21 8.39113 6.80948 9.09109C6.40896 9.79105 6.15027 10.5631 6.04818 11.363C5.9461 12.163 6.00262 12.9752 6.21452 13.7533C6.42642 14.5314 6.78954 15.2602 7.28315 15.8979C7.77648 16.5359 8.39068 17.0704 9.09064 17.4709C9.79059 17.8714 10.5626 18.1301 11.3626 18.2322C12.1625 18.3343 12.9748 18.2777 13.7529 18.0658C14.531 17.8539 15.2597 17.4908 15.8975 16.9972C16.0492 17.1284 16.2373 17.2874 16.2373 17.2874L17.7437 18.5876C17.9533 18.7698 18.2217 18.8699 18.4993 18.8696C18.5279 18.8696 18.5554 18.8686 18.582 18.8666C18.7332 18.8562 18.8807 18.8159 19.0163 18.7483C19.1518 18.6806 19.2727 18.5869 19.3719 18.4724L19.4336 18.4016C19.533 18.2871 19.6088 18.1541 19.6567 18.0102C19.7046 17.8663 19.7238 17.7144 19.7129 17.5632C19.7021 17.4119 19.6616 17.2643 19.5936 17.1287C19.5257 16.9931 19.4317 16.8723 19.317 16.773ZM12.1457 17.2573C10.7878 17.2573 9.48545 16.7179 8.52523 15.7577C7.56502 14.7975 7.02557 13.4951 7.02557 12.1372C7.02557 10.7792 7.56502 9.47693 8.52523 8.51671C9.48545 7.5565 10.7878 7.01708 12.1457 7.01708C13.5037 7.01708 14.806 7.5565 15.7662 8.51671C16.7264 9.47693 17.2659 10.7792 17.2659 12.1372C17.2659 13.4951 16.7265 14.7973 15.7664 15.7575C14.8063 16.7177 13.504 17.2572 12.1462 17.2573H12.1457Z" fill="white"></path>
    </g>
  </g>
  <defs>
    <linearGradient id="904a5b86" x1="12" y1="0" x2="12" y2="24" gradientUnits="userSpaceOnUse">
      <stop stop-color="#1D79F1"></stop>
      <stop offset="1" stop-color="#19A1FB"></stop>
    </linearGradient>
  </defs>
</svg>