<svg width="20" height="20" viewBox="0 0 20 20" fill="none" xmlns="http://www.w3.org/2000/svg">
  <g id="b22713cb">
    <path id="70b41e86" d="M20 6.25664C20 6.01746 20 5.77911 20 5.53993C20 5.33908 19.9962 5.1374 19.9908 4.93656C19.9852 4.49633 19.9465 4.05714 19.875 3.62273C19.8009 3.18784 19.6621 2.76649 19.4633 2.37265C19.0598 1.58205 18.4163 0.939618 17.625 0.537534C17.2311 0.338973 16.8098 0.200352 16.375 0.126258C15.9416 0.0549045 15.5034 0.0161823 15.0642 0.0104173C14.8625 0.00500031 14.6617 0.00250016 14.4583 0C14.2196 0 13.9808 0 13.7417 0H6.25625C6.0175 0 5.77875 0 5.54 0C5.33875 0 5.1375 0.00375023 4.93625 0.00916724C4.49605 0.014772 4.05689 0.0534949 3.6225 0.125008C3.18768 0.199102 2.76637 0.337723 2.3725 0.536283C1.58189 0.939912 0.939488 1.58367 0.5375 2.37515C0.338726 2.76899 0.199969 3.19034 0.125833 3.62523C0.0544457 4.05965 0.0158645 4.49884 0.0104167 4.93906C0.00513889 5.13852 0.00166667 5.3395 0 5.54201C0 5.78119 0 6.01954 0 6.25872V13.7467C0 13.9859 0 14.2242 0 14.4634C0 14.6645 0.00305556 14.8657 0.00916667 15.0668C0.0148566 15.5063 0.0535768 15.9448 0.125 16.3785C0.199172 16.8134 0.337928 17.2347 0.536667 17.6286C0.940489 18.419 1.58396 19.0613 2.375 19.4637C2.76887 19.6623 3.19018 19.8009 3.625 19.875C4.05953 19.9465 4.49883 19.9852 4.93917 19.9908C5.14 19.9962 5.34167 19.9983 5.54292 20C5.78167 20 6.02042 20 6.25917 20H13.7467C13.9858 20 14.2246 20 14.4633 20C14.6646 20 14.8658 19.9962 15.0671 19.9908C15.5074 19.9852 15.9467 19.9465 16.3812 19.875C16.8161 19.8009 17.2374 19.6623 17.6312 19.4637C18.42 19.0595 19.0609 18.4163 19.4625 17.6261C19.6612 17.2323 19.8 16.8109 19.8742 16.376C19.9456 15.9416 19.9841 15.5024 19.9896 15.0622C19.995 14.8613 19.9971 14.6597 19.9988 14.4588C19.9988 14.2196 19.9988 13.9813 19.9988 13.7421L20 6.25664Z" fill="url(#0b6327f0)"></path>
    <g id="5b34b2b8">
      <path id="64965d8f" d="M9.86793 6.39294C9.60782 6.39289 9.35025 6.4441 9.10992 6.54361C8.8696 6.64312 8.65123 6.78895 8.46729 6.97287C8.28334 7.15678 8.13743 7.37514 8.03788 7.61545C7.93833 7.85577 7.88708 8.11338 7.88708 8.37351C7.88714 8.63359 7.93843 8.89109 8.03801 9.13136C8.13758 9.37163 8.2835 9.58992 8.46744 9.77379C8.65138 9.95766 8.86973 10.1035 9.11003 10.203C9.35032 10.3025 9.60786 10.3537 9.86793 10.3536C10.3931 10.3535 10.8967 10.1448 11.268 9.77338C11.6393 9.40197 11.8479 8.89825 11.8479 8.37305C11.8478 7.84792 11.6392 7.34434 11.2679 6.97302C10.8966 6.6017 10.393 6.39305 9.86793 6.39294Z" fill="white"></path>
      <path id="f89c231d" d="M10.5667 10.9429H9.23709C8.61895 10.9528 8.01511 11.1304 7.49004 11.4568C6.96497 11.7831 6.53837 12.246 6.25583 12.7959C6.68923 13.327 7.23544 13.7549 7.85482 14.0485C8.47421 14.3422 9.15121 14.4942 9.83666 14.4935C10.5432 14.4941 11.2404 14.3326 11.8748 14.0214C12.5091 13.7102 13.0635 13.2576 13.4954 12.6984C13.2041 12.1746 12.7801 11.7366 12.2661 11.4285C11.752 11.1203 11.1659 10.9529 10.5667 10.9429Z" fill="white"></path>
      <path id="ad0d2df3" d="M17.5817 15.0351L15.59 13.3146C16.2386 12.1768 16.5357 10.8725 16.4439 9.56604C16.3521 8.25959 15.8755 7.00961 15.0742 5.97374C14.5414 5.28505 13.8782 4.70801 13.1225 4.27564C12.3667 3.84326 11.5333 3.56398 10.6696 3.45375C9.80594 3.34351 8.92901 3.40446 8.08891 3.63315C7.24881 3.86184 6.46198 4.25379 5.77334 4.78658C5.08469 5.31937 4.50769 5.98257 4.07534 6.73836C3.64299 7.49414 3.36373 8.32769 3.2535 9.19141C3.14327 10.0551 3.20422 10.9321 3.43289 11.7722C3.66157 12.6124 4.0535 13.3993 4.58626 14.088C5.11901 14.7767 5.78217 15.3537 6.53791 15.7861C7.29364 16.2184 8.12714 16.4977 8.99081 16.6079C9.85447 16.7182 10.7314 16.6572 11.5715 16.4285C12.4116 16.1999 13.1984 15.808 13.8871 15.2752C14.0508 15.4168 14.2541 15.5885 14.2541 15.5885L15.8792 16.9928C16.1054 17.1895 16.3952 17.2976 16.695 17.2973C16.7247 17.2973 16.7546 17.2963 16.7846 17.294C16.9478 17.2828 17.1072 17.2393 17.2535 17.1663C17.3999 17.0932 17.5304 16.9919 17.6375 16.8682L17.7042 16.7919C17.9207 16.5426 18.0294 16.2176 18.0065 15.8881C17.9835 15.5587 17.8307 15.2519 17.5817 15.0351ZM9.83708 15.5581C8.37055 15.5581 6.96407 14.9755 5.92707 13.9384C4.89007 12.9013 4.3075 11.4948 4.3075 10.0282C4.3075 8.56152 4.89007 7.15496 5.92707 6.11789C6.96407 5.08083 8.37055 4.49822 9.83708 4.49822C11.3036 4.49822 12.7101 5.08083 13.7471 6.11789C14.7841 7.15496 15.3667 8.56152 15.3667 10.0282C15.3667 10.7544 15.2237 11.4735 14.9459 12.1445C14.668 12.8154 14.2607 13.4251 13.7472 13.9387C13.2338 14.4522 12.6242 14.8596 11.9533 15.1375C11.2823 15.4155 10.5633 15.5581 9.83708 15.5581Z" fill="white"></path>
    </g>
  </g>
  <defs>
    <linearGradient id="0b6327f0" x1="0" y1="20" x2="20" y2="0" gradientUnits="userSpaceOnUse">
      <stop stop-color="#1D79F1"></stop>
      <stop offset="1" stop-color="#19A1FB"></stop>
    </linearGradient>
  </defs>
</svg>