<svg width="24" height="24" viewBox="0 0 24 24" fill="none" xmlns="http://www.w3.org/2000/svg">
  <g id="b22713cb">
    <path id="70b41e86" d="M24 7.50797C24 7.22095 24 6.93493 24 6.64792C24 6.4069 23.9955 6.16489 23.989 5.92387C23.9823 5.39559 23.9358 4.86857 23.85 4.34727C23.761 3.82541 23.5945 3.31978 23.356 2.84718C22.8718 1.89847 22.0995 1.12754 21.15 0.64504C20.6774 0.406767 20.1718 0.240422 19.65 0.151509C19.1299 0.0658854 18.6041 0.0194187 18.077 0.0125008C17.835 0.00600037 17.594 0.00300019 17.35 0C17.0635 0 16.777 0 16.49 0H7.5075C7.221 0 6.9345 0 6.648 0C6.4065 0 6.165 0.00450028 5.9235 0.0110007C5.39526 0.0177265 4.86827 0.0641939 4.347 0.150009C3.82522 0.238922 3.31964 0.405267 2.847 0.64354C1.89827 1.12789 1.12739 1.9004 0.645 2.85018C0.406472 3.32278 0.239963 3.82841 0.151 4.35027C0.0653348 4.87158 0.0190373 5.39861 0.0125 5.92687C0.00616667 6.16622 0.002 6.4074 0 6.65042C0 6.93743 0 7.22345 0 7.51047V16.496C0 16.783 0 17.0691 0 17.3561C0 17.5974 0.00366667 17.8388 0.011 18.0801C0.017828 18.6076 0.0642922 19.1338 0.15 19.6542C0.239007 20.1761 0.405513 20.6817 0.644 21.1543C1.12859 22.1027 1.90076 22.8736 2.85 23.3565C3.32264 23.5947 3.82822 23.7611 4.35 23.85C4.87143 23.9358 5.39859 23.9823 5.927 23.989C6.168 23.9955 6.41 23.998 6.6515 24C6.938 24 7.2245 24 7.511 24H16.496C16.783 24 17.0695 24 17.356 24C17.5975 24 17.839 23.9955 18.0805 23.989C18.6089 23.9823 19.1361 23.9358 19.6575 23.85C20.1793 23.7611 20.6849 23.5947 21.1575 23.3565C22.104 22.8713 22.8731 22.0996 23.355 21.1513C23.5935 20.6787 23.76 20.1731 23.849 19.6512C23.9347 19.1299 23.981 18.6029 23.9875 18.0746C23.994 17.8336 23.9965 17.5916 23.9985 17.3506C23.9985 17.0636 23.9985 16.7775 23.9985 16.4905L24 7.50797Z" fill="url(#0b6327f0)"></path>
    <g id="5b34b2b8">
      <path id="64965d8f" d="M11.8416 7.67151C11.5294 7.67144 11.2203 7.7329 10.9319 7.85231C10.6436 7.97171 10.3815 8.14672 10.1608 8.36741C9.94005 8.58811 9.76495 8.85014 9.64549 9.13852C9.52603 9.4269 9.46454 9.73604 9.46454 10.0482C9.4646 10.3603 9.52615 10.6693 9.64565 10.9576C9.76514 11.2459 9.94024 11.5079 10.161 11.7285C10.3817 11.9492 10.6437 12.1242 10.9321 12.2436C11.2204 12.3629 11.5295 12.4244 11.8416 12.4243C12.4718 12.4242 13.0761 12.1737 13.5217 11.728C13.9672 11.2823 14.2175 10.6779 14.2175 10.0476C14.2174 9.41748 13.967 8.81318 13.5215 8.3676C13.0759 7.92201 12.4717 7.67164 11.8416 7.67151Z" fill="white"></path>
      <path id="f89c231d" d="M12.68 13.1313H11.0845C10.3428 13.1432 9.61815 13.3564 8.98807 13.748C8.35798 14.1397 7.84607 14.6951 7.50702 15.355C8.02709 15.9923 8.68255 16.5058 9.42581 16.8581C10.1691 17.2105 10.9815 17.3929 11.804 17.3921C12.6519 17.3929 13.4886 17.1991 14.2497 16.8256C15.0109 16.4522 15.6762 15.909 16.1945 15.238C15.8449 14.6094 15.3362 14.0839 14.7193 13.7141C14.1024 13.3443 13.3991 13.1434 12.68 13.1313Z" fill="white"></path>
      <path id="ad0d2df3" d="M21.098 18.0421L18.708 15.9775C19.4863 14.6122 19.8429 13.0469 19.7327 11.4792C19.6226 9.91149 19.0506 8.4115 18.089 7.16846C17.4497 6.34203 16.6539 5.64959 15.747 5.13074C14.8401 4.61188 13.84 4.27676 12.8036 4.14447C11.7672 4.01219 10.7148 4.08533 9.70672 4.35976C8.6986 4.63418 7.75441 5.10452 6.92804 5.74388C6.10166 6.38322 5.40926 7.17906 4.89044 8.086C4.37162 8.99294 4.03651 9.99321 3.90423 11.0297C3.77196 12.0661 3.8451 13.1185 4.1195 14.1267C4.39391 15.1349 4.86422 16.0792 5.50354 16.9056C6.14284 17.732 6.93863 18.4244 7.84552 18.9432C8.7524 19.4621 9.7526 19.7972 10.789 19.9295C11.8254 20.0618 12.8777 19.9887 13.8858 19.7142C14.894 19.4398 15.8381 18.9695 16.6645 18.3302C16.861 18.5002 17.105 18.7062 17.105 18.7062L19.055 20.3913C19.3265 20.6273 19.6743 20.7571 20.034 20.7568C20.0697 20.7568 20.1055 20.7555 20.1415 20.7528C20.3374 20.7393 20.5286 20.6872 20.7043 20.5995C20.8799 20.5118 21.0365 20.3902 21.165 20.2418L21.245 20.1502C21.5049 19.8511 21.6353 19.461 21.6078 19.0658C21.5802 18.6705 21.3969 18.3023 21.098 18.0421ZM11.8045 18.6697C10.0447 18.6697 8.35691 17.9705 7.11252 16.7261C5.86812 15.4816 5.16903 13.7937 5.16903 12.0338C5.16903 10.2738 5.86812 8.58592 7.11252 7.34145C8.35691 6.09697 10.0447 5.39785 11.8045 5.39785C13.5644 5.39785 15.2521 6.09697 16.4965 7.34145C17.7409 8.58592 18.44 10.2738 18.44 12.0338C18.4401 12.9052 18.2685 13.7682 17.9351 14.5733C17.6016 15.3785 17.1129 16.1101 16.4967 16.7264C15.8805 17.3426 15.149 17.8315 14.3439 18.165C13.5388 18.4985 12.676 18.6697 11.8045 18.6697Z" fill="white"></path>
    </g>
  </g>
  <defs>
    <linearGradient id="0b6327f0" x1="0" y1="24" x2="24" y2="0" gradientUnits="userSpaceOnUse">
      <stop stop-color="#1D79F1"></stop>
      <stop offset="1" stop-color="#19A1FB"></stop>
    </linearGradient>
  </defs>
</svg>