<svg width="24" height="24" viewBox="0 0 24 24" fill="none" xmlns="http://www.w3.org/2000/svg">
  <g id="d2588e10">
    <g id="dbf13996">
      <g id="293de9b8">
        <path id="f8842615" d="M18 0H6C2.68629 0 0 2.68629 0 6V18C0 21.3137 2.68629 24 6 24H18C21.3137 24 24 21.3137 24 18V6C24 2.68629 21.3137 0 18 0Z" fill="url(#e20b4cfe)"></path>
      </g>
    </g>
    <g id="4549c46f">
      <path id="c43d60f4" d="M13.382 10.8504L12.0645 13.5504L10.7476 10.8504L12.0645 8.15039L11.8546 10.5059C11.779 10.5518 11.7206 10.6211 11.6881 10.7033C11.6557 10.7855 11.651 10.8761 11.6748 10.9612C11.6986 11.0464 11.7496 11.1213 11.82 11.1747C11.8905 11.2282 11.9764 11.2571 12.0648 11.2571C12.1532 11.2571 12.2392 11.2282 12.3096 11.1747C12.38 11.1213 12.431 11.0464 12.4548 10.9612C12.4786 10.8761 12.474 10.7855 12.4415 10.7033C12.409 10.6211 12.3506 10.5518 12.2751 10.5059L12.0645 8.15039L13.382 10.8504Z" fill="white"></path>
      <path id="b3400fbe" d="M11.7608 14.2735L10.4533 16.954C10.4466 16.9679 10.4361 16.9795 10.4231 16.9877C10.41 16.9958 10.395 17.0002 10.3796 17.0002C10.3642 17.0002 10.3491 16.9958 10.3361 16.9877C10.323 16.9795 10.3126 16.9679 10.3058 16.954L5.50832 7.11755C5.50222 7.10507 5.4994 7.09121 5.50011 7.07733C5.50082 7.06345 5.50506 7.04994 5.51241 7.03815C5.51976 7.02635 5.52999 7.01665 5.54213 7.00989C5.55428 7.00313 5.56793 6.99954 5.58183 6.99951H8.19682C8.21215 6.99954 8.22717 7.00389 8.24016 7.01202C8.25315 7.02015 8.26361 7.03176 8.27034 7.04553L11.7603 14.201C11.766 14.2123 11.7689 14.2247 11.769 14.2372C11.7691 14.2498 11.7663 14.2622 11.7608 14.2735Z" fill="white"></path>
      <path id="f3f878b2" d="M18.6191 7.11798L13.8691 16.858C13.8624 16.8718 13.8519 16.8834 13.8388 16.8916C13.8258 16.8998 13.8107 16.9041 13.7953 16.9041C13.78 16.9041 13.7649 16.8998 13.7518 16.8916C13.7388 16.8834 13.7283 16.8718 13.7216 16.858L12.4141 14.178C12.4086 14.1668 12.4058 14.1544 12.4058 14.142C12.4058 14.1295 12.4086 14.1172 12.4141 14.106L15.8571 7.04645C15.8638 7.03268 15.8743 7.02107 15.8873 7.01294C15.9003 7.00481 15.9153 7.00052 15.9306 7.00049H18.5456C18.5594 7.00056 18.573 7.00413 18.5851 7.01086C18.5972 7.0176 18.6073 7.02727 18.6147 7.039C18.622 7.05073 18.6263 7.06407 18.627 7.07788C18.6278 7.09169 18.6251 7.10551 18.6191 7.11798Z" fill="white"></path>
    </g>
  </g>
  <defs>
    <linearGradient id="e20b4cfe" x1="0" y1="12" x2="24" y2="12" gradientUnits="userSpaceOnUse">
      <stop stop-color="#274BF7"></stop>
      <stop offset="1" stop-color="#209DF9"></stop>
    </linearGradient>
  </defs>
</svg>