<svg width="24" height="24" viewBox="0 0 24 24" fill="none"
     xmlns="http://www.w3.org/2000/svg">
  <g id="65cc21fd">
    <path id="28eb1424" d="M17 10H19.667C20.4 10 21 10.448 21 11V12C21 13.657 19.209 15 17 15"
          stroke="#65696E" stroke-width="2" stroke-miterlimit="10" stroke-linecap="round"/>
    <path id="a9f3ffdb" d="M7 15C4.791 15 3 13.657 3 12V11C3 10.448 3.6 10 4.333 10H7"
          stroke="#65696E" stroke-width="2" stroke-miterlimit="10" stroke-linecap="round"/>
    <path id="ee8be364" d="M9 16H15C15.2652 16 15.5196 16.1054 15.7071 16.2929C15.8946 16.4804 16 16.7348 16 17V18C16 18.7956 15.6839 19.5587 15.1213 20.1213C14.5587 20.6839 13.7956 21 13 21H11C10.2044 21 9.44129 20.6839 8.87868 20.1213C8.31607 19.5587 8 18.7956 8 18V17C8 16.7348 8.10536 16.4804 8.29289 16.2929C8.48043 16.1054 8.73478 16 9 16Z"
          stroke="#65696E" stroke-width="2" stroke-miterlimit="10"/>
    <path id="bf584af3" d="M19 7C20.1046 7 21 6.10457 21 5C21 3.89543 20.1046 3 19 3C17.8954 3 17 3.89543 17 5C17 6.10457 17.8954 7 19 7Z"
          stroke="#65696E" stroke-width="2" stroke-miterlimit="10"/>
    <path id="939e15fa" d="M6 7C7.10457 7 8 6.10457 8 5C8 3.89543 7.10457 3 6 3C4.89543 3 4 3.89543 4 5C4 6.10457 4.89543 7 6 7Z"
          stroke="#65696E" stroke-width="2" stroke-miterlimit="10"/>
    <path id="1a56543f" d="M12 13C13.1046 13 14 12.1046 14 11C14 9.89543 13.1046 9 12 9C10.8954 9 10 9.89543 10 11C10 12.1046 10.8954 13 12 13Z"
          stroke="#65696E" stroke-width="2" stroke-miterlimit="10"/>
  </g>
</svg>
