<svg width="64" height="64" viewBox="0 0 64 64" fill="none" xmlns="http://www.w3.org/2000/svg">
  <g id="da734f7f">
    <path id="1b4ff4b0" d="M36 10.6667H18.6666C17.6058 10.6667 16.5883 11.0882 15.8382 11.8383C15.0881 12.5885 14.6666 13.6059 14.6666 14.6667V49.3334C14.6666 50.3943 15.0881 51.4117 15.8382 52.1618C16.5883 52.912 17.6058 53.3334 18.6666 53.3334H45.3333C46.3942 53.3334 47.4116 52.912 48.1617 52.1618C48.9119 51.4117 49.3333 50.3943 49.3333 49.3334V24.0001L36 10.6667Z" fill="url(#e0976dd9)"></path>
    <path id="1c90c449" opacity="0.4" d="M36 20.0001C36 21.0609 36.4214 22.0784 37.1716 22.8285C37.9217 23.5787 38.9391 24.0001 40 24.0001H49.3333L36 10.6667V20.0001Z" fill="#FFE2E2"></path>
    <path id="2a3a5cb5" d="M38.6666 30.6667H22.6666V33.3334H38.6666V30.6667Z" fill="#FFE2E2"></path>
    <path id="3208640c" d="M38.6666 34.6667H22.6666V37.3334H38.6666V34.6667Z" fill="#FFE2E2"></path>
    <path id="209d05f8" d="M38.6666 38.6667H22.6666V41.3334H38.6666V38.6667Z" fill="#FFE2E2"></path>
    <path id="551d8f97" d="M30.6666 42.6667H22.6666V45.3334H30.6666V42.6667Z" fill="#FFE2E2"></path>
  </g>
  <defs>
    <linearGradient id="e0976dd9" x1="32" y1="10.6667" x2="32" y2="53.3334" gradientUnits="userSpaceOnUse">
      <stop stop-color="#5895FF"></stop>
      <stop offset="1" stop-color="#387CF4"></stop>
    </linearGradient>
  </defs>
</svg>