<svg width="40" height="40" viewBox="0 0 40 40" fill="none" xmlns="http://www.w3.org/2000/svg">
  <g id="cb9209e7">
    <path id="73c37ba7" d="M39.997 12.51C39.997 12.032 39.997 11.555 39.997 11.077C39.997 10.677 39.99 10.277 39.979 9.87C39.968 8.98978 39.8908 8.11163 39.748 7.243C39.5998 6.3733 39.3224 5.53065 38.925 4.743C38.1195 3.16136 36.8336 1.87552 35.252 1.07C34.4643 0.67273 33.6217 0.395337 32.752 0.247C31.8833 0.104929 31.0052 0.0283799 30.125 0.018C29.725 0.007 29.325 0.003 28.918 0C28.441 0 27.963 0 27.485 0H12.51C12.033 0 11.555 0 11.077 0C10.677 0 10.272 0.007 9.87 0.018C8.98944 0.0289609 8.11096 0.106179 7.242 0.249C6.37234 0.397337 5.52971 0.67473 4.742 1.072C3.16162 1.87777 1.87691 3.16319 1.072 4.744C0.674577 5.53165 0.397176 6.3743 0.249 7.244C0.106245 8.1123 0.0290271 8.99011 0.018 9.87C0.00733333 10.27 0.00133333 10.6723 0 11.077C0 11.555 0 12.032 0 12.51V27.484C0 27.962 0 28.439 0 28.917C0 29.317 0.006 29.7193 0.018 30.124C0.028977 31.0042 0.106195 31.8824 0.249 32.751C0.397235 33.6207 0.674633 34.4633 1.072 35.251C1.87837 36.8318 3.164 38.1171 4.745 38.923C5.53271 39.3203 6.37534 39.5977 7.245 39.746C8.11397 39.8888 8.99245 39.966 9.873 39.977C10.273 39.988 10.673 39.992 11.08 39.995C11.557 39.995 12.035 39.995 12.513 39.995H27.484C27.962 39.995 28.44 39.995 28.917 39.995C29.317 39.995 29.717 39.988 30.124 39.977C31.0046 39.966 31.883 39.8888 32.752 39.746C33.6217 39.5977 34.4643 39.3203 35.252 38.923C36.833 38.1171 38.1186 36.8318 38.925 35.251C39.3224 34.4633 39.5998 33.6207 39.748 32.751C39.8908 31.8824 39.968 31.0042 39.979 30.124C39.99 29.724 39.994 29.324 39.997 28.917C39.997 28.439 39.997 27.962 39.997 27.484V12.51Z" fill="url(#3e145e96)"></path>
    <path id="ff0b9838" d="M32.711 17.196H31.011C30.7588 17.195 30.5128 17.1182 30.3049 16.9755C30.0969 16.8328 29.9367 16.6309 29.845 16.396C29.7604 16.1827 29.6694 15.9713 29.572 15.762C29.4579 15.5245 29.4212 15.2572 29.4671 14.9978C29.513 14.7383 29.6393 14.4998 29.828 14.316L31.228 12.97C31.3466 12.856 31.4416 12.7197 31.5074 12.569C31.5733 12.4182 31.6088 12.256 31.612 12.0915C31.6152 11.9271 31.5859 11.7636 31.5258 11.6104C31.4658 11.4573 31.3761 11.3175 31.262 11.199L31.228 11.165L28.964 8.98499C28.7306 8.76 28.4192 8.63428 28.095 8.63428C27.7709 8.63428 27.4594 8.76 27.226 8.98499L25.713 10.442C25.5359 10.6134 25.3119 10.7283 25.0694 10.7721C24.8269 10.8159 24.5769 10.7866 24.351 10.688C24.0977 10.5767 23.8407 10.473 23.58 10.377C23.3407 10.2889 23.1342 10.1295 22.9884 9.92023C22.8426 9.71098 22.7647 9.46201 22.765 9.207V7.254C22.765 6.92185 22.6331 6.6033 22.3984 6.36835C22.1636 6.13339 21.8451 6.00124 21.513 6.00098H18.85C18.6855 6.00098 18.5225 6.03341 18.3705 6.09637C18.2185 6.15934 18.0803 6.25163 17.964 6.36798C17.8476 6.48433 17.7554 6.62245 17.6924 6.77448C17.6294 6.9265 17.597 7.08945 17.597 7.254V8.94901C17.5956 9.20241 17.5179 9.44951 17.374 9.65805C17.23 9.8666 17.0264 10.0269 16.79 10.118C16.5773 10.202 16.3674 10.2923 16.16 10.389C15.9217 10.5035 15.6535 10.5404 15.3931 10.4943C15.1328 10.4481 14.8934 10.3214 14.709 10.132L13.365 8.73199C13.1346 8.49275 12.8187 8.35479 12.4866 8.34842C12.1545 8.34204 11.8334 8.46778 11.594 8.698L11.56 8.73199L9.38 10.996C9.15502 11.2293 9.0293 11.5408 9.0293 11.865C9.0293 12.1891 9.15502 12.5006 9.38 12.734L10.837 14.247C11.0086 14.424 11.1235 14.648 11.1673 14.8906C11.2111 15.1331 11.1818 15.3832 11.083 15.609C10.9717 15.8623 10.868 16.1193 10.772 16.38C10.6838 16.6192 10.5243 16.8257 10.3151 16.9714C10.1059 17.1171 9.85697 17.1952 9.60199 17.195H7.65002C7.31788 17.195 6.9993 17.3269 6.76434 17.5616C6.52939 17.7964 6.3973 18.1148 6.39703 18.447V21.11C6.39703 21.4423 6.52899 21.761 6.76398 21.996C6.99896 22.231 7.31771 22.363 7.65002 22.363H9.34503C9.59847 22.3642 9.84563 22.4419 10.0542 22.5859C10.2628 22.7299 10.423 22.9334 10.514 23.17C10.598 23.3827 10.6884 23.593 10.785 23.801C10.8996 24.0393 10.9364 24.3076 10.8903 24.5679C10.8441 24.8283 10.7175 25.0675 10.528 25.252L9.12799 26.596C8.88875 26.8264 8.75082 27.1424 8.74445 27.4745C8.73807 27.8065 8.86377 28.1276 9.09399 28.367L9.12799 28.401L11.392 30.581C11.6254 30.806 11.9368 30.9317 12.261 30.9317C12.5851 30.9317 12.8967 30.806 13.13 30.581L14.643 29.124C14.82 28.9525 15.044 28.8375 15.2866 28.7937C15.5291 28.7499 15.7792 28.7792 16.005 28.878C16.2583 28.9893 16.5153 29.0927 16.776 29.188C17.0152 29.2762 17.2217 29.4357 17.3674 29.6449C17.5132 29.8541 17.5912 30.103 17.591 30.358V32.31C17.5913 32.642 17.7233 32.9603 17.958 33.195C18.1927 33.4297 18.511 33.5617 18.843 33.562H21.506C21.8383 33.562 22.157 33.43 22.392 33.195C22.627 32.96 22.759 32.6413 22.759 32.309V30.614C22.7603 30.3605 22.8379 30.1134 22.9819 29.9048C23.1259 29.6962 23.3294 29.536 23.566 29.445C23.7786 29.361 23.989 29.2703 24.197 29.173C24.4353 29.0584 24.7036 29.0216 24.9639 29.0677C25.2243 29.1138 25.4636 29.2406 25.648 29.43L26.992 30.83C27.2224 31.0692 27.5384 31.2072 27.8705 31.2136C28.2026 31.22 28.5236 31.0942 28.763 30.864L28.797 30.83L30.977 28.566C31.202 28.3326 31.3277 28.0211 31.3277 27.697C31.3277 27.3728 31.202 27.0613 30.977 26.828L29.52 25.315C29.3486 25.1379 29.2337 24.9139 29.1899 24.6714C29.1461 24.4289 29.1754 24.1788 29.274 23.953C29.3853 23.6997 29.4887 23.443 29.584 23.183C29.6722 22.9437 29.8317 22.7373 30.0409 22.5916C30.2501 22.4458 30.499 22.3678 30.754 22.368H32.706C33.0381 22.3677 33.3566 22.2356 33.5914 22.0006C33.8261 21.7657 33.958 21.4471 33.958 21.115V18.449C33.958 18.1177 33.8268 17.7999 33.5931 17.5651C33.3595 17.3303 33.0423 17.1976 32.711 17.196ZM20.18 25.221C19.1039 25.2212 18.0519 24.9023 17.157 24.3046C16.2621 23.7069 15.5646 22.8572 15.1526 21.8631C14.7406 20.869 14.6326 19.775 14.8423 18.7195C15.0521 17.664 15.5701 16.6944 16.3309 15.9333C17.0917 15.1722 18.0611 14.6539 19.1165 14.4437C20.1719 14.2336 21.266 14.3411 22.2603 14.7528C23.2545 15.1644 24.1044 15.8617 24.7025 16.7563C25.3005 17.651 25.6198 18.7029 25.62 19.779C25.6203 20.4935 25.4798 21.2011 25.2066 21.8613C24.9334 22.5216 24.5328 23.1215 24.0278 23.627C23.5227 24.1324 22.9231 24.5334 22.2631 24.8071C21.603 25.0807 20.8956 25.2217 20.181 25.222L20.18 25.221Z" fill="white"></path>
  </g>
  <defs>
    <linearGradient id="3e145e96" x1="5.23961" y1="3.79953" x2="34.9973" y2="-0.000373708" gradientUnits="userSpaceOnUse">
      <stop stop-color="#5F7FA5"></stop>
      <stop offset="1" stop-color="#425974"></stop>
    </linearGradient>
  </defs>
</svg>