<svg width="48" height="48" viewBox="0 0 48 48" fill="none" xmlns="http://www.w3.org/2000/svg">
  <g id="0a07cc8e">
    <path id="8dd976cf" d="M48 15.014C48 14.44 48 13.867 48 13.294C48 12.814 47.991 12.329 47.978 11.846C47.9645 10.7898 47.8716 9.7362 47.7 8.694C47.5221 7.65034 47.189 6.63916 46.712 5.694C45.7442 3.79554 44.1996 2.25267 42.3 1.287C41.3547 0.810483 40.3436 0.477814 39.3 0.3C38.259 0.129668 37.2067 0.037743 36.152 0.025C35.669 0.012 35.186 0.007 34.7 0C34.128 0 33.554 0 32.98 0H15.014C14.441 0 13.867 0 13.295 0C12.812 0 12.328 0.009 11.846 0.022C10.7895 0.0354394 9.73554 0.128368 8.693 0.3C7.65173 0.479106 6.64298 0.812436 5.7 1.289C3.80095 2.25622 2.25736 3.80051 1.291 5.7C0.812933 6.64499 0.478904 7.65618 0.3 8.7C0.128666 9.74256 0.0360709 10.7965 0.023 11.853C0.0123333 12.331 0.00466667 12.8117 0 13.295C0 13.869 0 14.441 0 15.015V32.983C0 33.557 0 34.13 0 34.703C0 35.1857 0.00733333 35.6683 0.022 36.151C0.0356058 37.2062 0.128534 38.2588 0.3 39.3C0.477999 40.3436 0.811013 41.3548 1.288 42.3C2.25785 44.1952 3.80212 45.7353 5.7 46.7C6.64298 47.1766 7.65173 47.5099 8.693 47.689C9.73554 47.8606 10.7895 47.9535 11.846 47.967C12.326 47.98 12.811 47.986 13.295 47.989C13.868 47.989 14.442 47.989 15.014 47.989H32.983C33.557 47.989 34.13 47.989 34.703 47.989C35.186 47.989 35.668 47.98 36.152 47.967C37.2085 47.9535 38.2625 47.8606 39.305 47.689C40.3486 47.5112 41.3597 47.1785 42.305 46.702C44.1998 45.7353 45.7408 44.1946 46.708 42.3C47.185 41.3548 47.518 40.3436 47.696 39.3C47.8673 38.2574 47.9599 37.2035 47.973 36.147C47.986 35.667 47.992 35.182 47.995 34.699C47.995 34.124 47.995 33.552 47.995 32.978L48 15.014Z" fill="url(#7f2735fa)"></path>
    <g id="c03f6a08" filter="url(#251e2d8e)">
      <path id="7f02442e" d="M23.744 17.988C26.3254 17.988 28.418 15.8954 28.418 13.314C28.418 10.7326 26.3254 8.64001 23.744 8.64001C21.1626 8.64001 19.07 10.7326 19.07 13.314C19.07 15.8954 21.1626 17.988 23.744 17.988Z" fill="white"></path>
    </g>
    <g id="0bf4d57c" filter="url(#6c81fdc0)">
      <path id="9351df62" d="M23.405 20.667C20.9601 20.7937 18.6584 21.8595 16.9801 23.6419C15.3018 25.4244 14.3765 27.7859 14.397 30.2341V37.134C14.397 37.7244 14.6315 38.2906 15.049 38.7081C15.4664 39.1255 16.0326 39.3601 16.623 39.3601H18.183C18.7736 39.3601 19.3401 39.1254 19.7577 38.7078C20.1754 38.2901 20.41 37.7237 20.41 37.133V30.3731C20.3962 29.4875 20.7252 28.631 21.3283 27.9824C21.9314 27.3338 22.7618 26.9435 23.646 26.8931C24.0929 26.8793 24.5379 26.9555 24.9548 27.1169C25.3717 27.2784 25.752 27.5219 26.073 27.8331C26.3944 28.1446 26.6499 28.5176 26.8243 28.9299C26.9987 29.3422 27.0883 29.7854 27.088 30.233V37.18C27.088 37.7579 27.3176 38.3122 27.7262 38.7208C28.1349 39.1295 28.6891 39.3591 29.267 39.3591H30.867C31.4573 39.3588 32.0233 39.1242 32.4407 38.7068C32.8581 38.2894 33.0927 37.7233 33.093 37.133V30.013C33.093 28.7564 32.8396 27.5127 32.348 26.3562C31.8565 25.1996 31.1368 24.1541 30.232 23.2821C29.3281 22.4099 28.2577 21.7288 27.0847 21.2796C25.9117 20.8303 24.6603 20.6219 23.405 20.667Z" fill="white"></path>
    </g>
  </g>
  <defs>
    <filter id="251e2d8e" x="18.07" y="8.64001" width="11.348" height="11.348" filterUnits="userSpaceOnUse" color-interpolation-filters="sRGB">
      <feFlood flood-opacity="0" result="BackgroundImageFix"></feFlood>
      <feColorMatrix in="SourceAlpha" type="matrix" values="0 0 0 0 0 0 0 0 0 0 0 0 0 0 0 0 0 0 127 0" result="hardAlpha"></feColorMatrix>
      <feOffset dy="1"></feOffset>
      <feGaussianBlur stdDeviation="0.5"></feGaussianBlur>
      <feColorMatrix type="matrix" values="0 0 0 0 0 0 0 0 0 0 0 0 0 0 0 0 0 0 0.161 0"></feColorMatrix>
      <feBlend mode="normal" in2="BackgroundImageFix" result="effect1_dropShadow_2019_3637"></feBlend>
      <feBlend mode="normal" in="SourceGraphic" in2="effect1_dropShadow_2019_3637" result="shape"></feBlend>
    </filter>
    <filter id="6c81fdc0" x="13.3967" y="20.661" width="20.6964" height="20.6991" filterUnits="userSpaceOnUse" color-interpolation-filters="sRGB">
      <feFlood flood-opacity="0" result="BackgroundImageFix"></feFlood>
      <feColorMatrix in="SourceAlpha" type="matrix" values="0 0 0 0 0 0 0 0 0 0 0 0 0 0 0 0 0 0 127 0" result="hardAlpha"></feColorMatrix>
      <feOffset dy="1"></feOffset>
      <feGaussianBlur stdDeviation="0.5"></feGaussianBlur>
      <feColorMatrix type="matrix" values="0 0 0 0 0 0 0 0 0 0 0 0 0 0 0 0 0 0 0.161 0"></feColorMatrix>
      <feBlend mode="normal" in2="BackgroundImageFix" result="effect1_dropShadow_2019_3637"></feBlend>
      <feBlend mode="normal" in="SourceGraphic" in2="effect1_dropShadow_2019_3637" result="shape"></feBlend>
    </filter>
    <linearGradient id="7f2735fa" x1="3.984" y1="2.30347" x2="42.7581" y2="45.5504" gradientUnits="userSpaceOnUse">
      <stop stop-color="#887EE7"></stop>
      <stop offset="1" stop-color="#3928D7"></stop>
    </linearGradient>
  </defs>
</svg>