<svg width="132" height="131" viewBox="0 0 132 131" fill="none" xmlns="http://www.w3.org/2000/svg">
  <g id="bfb7c531" clip-path="url(#0dc7b987)">
    <path id="c28e3b04" d="M0 65.5C0 13.1 13.2 0 66 0C118.8 0 132 13.1 132 65.5C132 117.9 118.8 131 66 131C13.2 131 0 117.9 0 65.5Z" fill="url(#d125a98f)"></path>
    <path id="417e51ae" d="M47.85 103.163C36.9149 103.163 28.05 94.3648 28.05 83.5125V47.4875C28.05 36.635 36.9149 27.8375 47.85 27.8375H56.3641C58.2673 27.8375 60.0776 28.6527 61.3308 30.0741L64.3443 33.4913C65.5974 34.9126 67.4081 35.7278 69.3111 35.7278H90.75C98.0403 35.7278 103.95 41.5928 103.95 48.8278V83.5125C103.95 94.3648 95.0854 103.163 84.1501 103.163H47.85Z" fill="white"></path>
    <g id="4b1da057">
      <mask id="ce62443c" style="mask-type:luminance" maskUnits="userSpaceOnUse" x="62" y="52" width="29" height="31">
        <g id="4f3cf72c">
          <path id="187f4af5" d="M90.2 52.1271H62.975V82.1479H90.2V52.1271Z" fill="white"></path>
        </g>
      </mask>
      <g mask="url(#ce62443c)">
        <g id="2e7b3b0e">
          <path id="99520e21" fill-rule="evenodd" clip-rule="evenodd" d="M76.5878 65.9828C80.3467 65.9828 83.394 62.8811 83.394 59.0551C83.394 55.2288 80.3467 52.1271 76.5878 52.1271C72.8288 52.1271 69.7815 55.2288 69.7815 59.0551C69.7815 62.8811 72.8288 65.9828 76.5878 65.9828ZM87.0746 82.1479H66.0902C65.1634 82.1479 64.3233 81.771 63.7098 81.1597C62.994 80.4463 62.9552 79.324 63.2544 78.3511C64.8403 73.1911 69.5733 69.4469 75.1655 69.4469H77.9996C83.5917 69.4469 88.3245 73.1911 89.9104 78.3508C90.2096 79.3235 90.1708 80.4457 89.4556 81.1589C88.8418 81.7707 88.0014 82.1479 87.0746 82.1479Z" fill="#86BEFF"></path>
        </g>
      </g>
    </g>
    <g id="98a24d8c">
      <mask id="8245c7a4" style="mask-type:luminance" maskUnits="userSpaceOnUse" x="41" y="49" width="35" height="37">
        <g id="6cc72f88">
          <path id="21639791" d="M75.0751 49.125H41.8V85.15H75.0751V49.125Z" fill="white"></path>
        </g>
      </mask>
      <g mask="url(#8245c7a4)">
        <g id="4bc64b31">
          <path id="ebd29393" fill-rule="evenodd" clip-rule="evenodd" d="M58.4376 65.7519C63.032 65.7519 66.7563 62.0299 66.7563 57.4386C66.7563 52.847 63.032 49.125 58.4376 49.125C53.8431 49.125 50.1188 52.847 50.1188 57.4386C50.1188 62.0299 53.8431 65.7519 58.4376 65.7519ZM71.2548 85.15H45.6072C44.4747 85.15 43.4479 84.6975 42.6977 83.9639C41.8229 83.108 41.7756 81.7612 42.1411 80.5937C44.0795 74.4017 49.8642 69.9087 56.699 69.9087H60.1632C66.9978 69.9087 72.7827 74.4017 74.7209 80.5937C75.0863 81.7606 75.039 83.1075 74.1648 83.9631C73.4149 84.6972 72.3875 85.15 71.2548 85.15Z" fill="url(#55f01d70)"></path>
        </g>
      </g>
    </g>
  </g>
  <defs>
    <linearGradient id="d125a98f" x1="66" y1="0" x2="66" y2="131" gradientUnits="userSpaceOnUse">
      <stop stop-color="#3990FF"></stop>
      <stop offset="1" stop-color="#2662FF"></stop>
    </linearGradient>
    <linearGradient id="55f01d70" x1="74.9362" y1="67.1375" x2="32.9453" y2="67.1375" gradientUnits="userSpaceOnUse">
      <stop stop-color="#3990FF"></stop>
      <stop offset="1" stop-color="#3990FF"></stop>
    </linearGradient>
    <clipPath id="0dc7b987">
      <rect width="132" height="131" fill="white"></rect>
    </clipPath>
  </defs>
</svg>