<svg width="131" height="131" viewBox="0 0 131 131" fill="none" xmlns="http://www.w3.org/2000/svg">
  <g id="0081e8b2" clip-path="url(#2417a73b)">
    <path id="85dbc23a" d="M0 65.5C0 13.1 13.1 0 65.5 0C117.9 0 131 13.1 131 65.5C131 117.9 117.9 131 65.5 131C13.1 131 0 117.9 0 65.5Z" fill="url(#900719af)"></path>
    <path id="6b56b27b" fill-rule="evenodd" clip-rule="evenodd" d="M27.8374 61.0954C27.8374 57.7216 29.5685 54.5836 32.4227 52.7843L37.294 49.7134C39.4214 48.372 42.129 48.3674 44.261 49.7014L52.898 55.1049C54.4375 56.0683 54.4356 58.3114 52.8942 59.2718L47.2985 62.7583C45.3791 63.9542 44.2124 66.056 44.2124 68.3176V93.3375C44.2124 96.0506 42.013 98.25 39.2999 98.25H32.7499C30.0368 98.25 27.8374 96.0506 27.8374 93.3375V61.0954ZM86.7874 68.3176C86.7874 66.056 85.6207 63.9542 83.7013 62.7583L73.6601 56.502L53.3185 43.7756C51.7837 42.8152 51.7796 40.5811 53.3112 39.6155L62.0068 34.1334C64.1413 32.788 66.8588 32.788 68.993 34.1334L98.5771 52.7843C101.431 54.5836 103.162 57.7216 103.162 61.0954V93.3375C103.162 96.0506 100.963 98.25 98.2499 98.25H91.6999C88.9868 98.25 86.7874 96.0506 86.7874 93.3375V68.3176ZM57.0455 74.2102C55.1708 75.4154 54.0374 77.4912 54.0374 79.7198V93.3375C54.0374 96.0506 56.2368 98.25 58.9499 98.25H72.0499C74.763 98.25 76.9624 96.0506 76.9624 93.3375V79.7198C76.9624 77.4912 75.8293 75.4154 73.9543 74.2102L68.1565 70.4827C66.5381 69.4426 64.4617 69.4426 62.8433 70.4827L57.0455 74.2102Z" fill="white"></path>
  </g>
  <defs>
    <linearGradient id="900719af" x1="65.5" y1="0" x2="65.5" y2="131" gradientUnits="userSpaceOnUse">
      <stop stop-color="#3990FF"></stop>
      <stop offset="1" stop-color="#2662FF"></stop>
    </linearGradient>
    <clipPath id="2417a73b">
      <rect width="131" height="131" fill="white"></rect>
    </clipPath>
  </defs>
</svg>