<svg width="131" height="131" viewBox="0 0 131 131" fill="none" xmlns="http://www.w3.org/2000/svg">
  <g id="564cf7f2">
    <path id="06087d75" d="M-0.012207 65.5C-0.012207 13.1 13.0878 0 65.4878 0C117.888 0 130.988 13.1 130.988 65.5C130.988 117.9 117.888 131 65.4878 131C13.0878 131 -0.012207 117.9 -0.012207 65.5Z" fill="url(#8f65f240)"></path>
    <path id="2473cc7c" fill-rule="evenodd" clip-rule="evenodd" d="M40.9253 79.4187C41.4403 84.069 43.7887 88.0137 47.3544 91.5791C55.6893 99.9139 69.2027 99.9139 77.5376 91.5791L100.824 68.2925C104.067 65.0497 104.15 59.8179 101.012 56.4735C97.7386 52.9859 92.2325 52.8871 88.8366 56.2552L66.3065 78.6C59.6201 85.2867 48.1101 85.2488 40.9253 79.4187Z" fill="white"></path>
    <path id="b8b5ad3a" fill-rule="evenodd" clip-rule="evenodd" d="M33.5564 61.4062C33.7373 65.6384 36.0383 69.4832 39.2696 72.7145C47.4751 80.2375 57.2164 79.5612 64.063 72.7145L83.352 53.4256C86.1043 50.6732 86.1324 46.2192 83.415 43.4325C80.7273 40.6758 76.3339 40.559 73.5032 43.1683L54.9004 60.3178C49.2098 66.0084 39.5456 66.5941 33.5564 61.4062Z" fill="white"></path>
    <path id="6f079f33" fill-rule="evenodd" clip-rule="evenodd" d="M30.1272 46.3249C29.8294 49.9839 31.0802 53.7455 33.8795 56.5451C38.9402 61.6055 47.1446 61.6055 52.205 56.5451L67.8358 40.9143C70.217 38.5331 70.217 34.6719 67.8358 32.2907C65.4543 29.9092 61.5934 29.9092 59.2119 32.2907L45.1982 46.3041C41.0378 50.4647 34.2962 50.4716 30.1272 46.3249Z" fill="white"></path>
  </g>
  <defs>
    <linearGradient id="8f65f240" x1="65.4878" y1="0" x2="65.4878" y2="131" gradientUnits="userSpaceOnUse">
      <stop stop-color="#3990FF"></stop>
      <stop offset="1" stop-color="#2662FF"></stop>
    </linearGradient>
  </defs>
</svg>