<svg width="132" height="131" viewBox="0 0 132 131" fill="none" xmlns="http://www.w3.org/2000/svg">
  <g id="071801a2" clip-path="url(#5cee92df)">
    <path id="c1d5be8b" d="M0 65.5C0 13.1 13.2 0 66 0C118.8 0 132 13.1 132 65.5C132 117.9 118.8 131 66 131C13.2 131 0 117.9 0 65.5Z" fill="url(#d8e6b859)"></path>
    <path id="6266d78a" d="M75.3797 74.7587C80.5345 69.6429 80.5345 61.3484 75.3797 56.2326C70.2248 51.1167 61.867 51.1167 56.7121 56.2326C51.5572 61.3484 51.5572 69.6429 56.7121 74.7587C61.867 79.8748 70.2248 79.8748 75.3797 74.7587Z" fill="white"></path>
    <path id="f8685e00" d="M98.3659 53.8931C100.114 53.0754 102.206 53.9155 102.705 55.768C104.47 62.3161 104.432 69.2515 102.539 75.835C100.128 84.2133 94.8654 91.5029 87.6469 96.4624C84.7578 98.447 81.6263 100.009 78.3489 101.123C76.5174 101.746 74.646 100.485 74.3609 98.5843L72.8594 88.5854C72.6198 86.9894 73.601 85.4827 75.0761 84.8039C76.1797 84.296 77.2437 83.6934 78.2551 82.9986C82.3353 80.1954 85.3094 76.0749 86.6715 71.3393C87.5369 68.3307 87.716 65.1927 87.2254 62.1453C86.968 60.546 87.6854 58.8902 89.1616 58.1997L98.3659 53.8931ZM42.2326 65.212C43.5936 65.4121 44.5795 66.5734 44.7368 67.93C45.3044 72.8229 47.5646 77.3688 51.1308 80.7934C54.6973 84.2182 59.3494 86.3099 64.2953 86.7119C65.2265 86.7875 66.0182 87.4572 66.1557 88.3742L67.8329 99.5521C68.1178 101.452 66.6996 103.2 64.7653 103.137C64.16 103.117 63.5545 103.082 62.9486 103.033C54.1979 102.322 45.9657 98.6203 39.6561 92.5613C33.3468 86.5023 29.3497 78.4586 28.3457 69.8025C28.226 68.7714 28.1499 67.7393 28.1166 66.7084C28.0547 64.7918 29.8125 63.387 31.724 63.6679L42.2326 65.212ZM34.1495 45.0891C38.9068 37.7656 46.0755 32.3057 54.4341 29.6395C61.41 27.4145 68.8548 27.2508 75.8736 29.1185C77.7442 29.6163 78.5876 31.7001 77.7546 33.4353L73.3722 42.5635C72.6732 44.0195 71.0124 44.7256 69.4075 44.4726C66.1064 43.9524 62.7061 44.201 59.4825 45.2291C54.758 46.7361 50.7056 49.8225 48.0169 53.9619C47.4895 54.7741 47.0215 55.6171 46.6139 56.4844C45.9289 57.9421 44.4153 58.9109 42.812 58.6754L32.7242 57.1935C30.8061 56.9118 29.5334 55.0511 30.1648 53.2315C31.1518 50.3872 32.485 47.6515 34.1495 45.0891Z" fill="white"></path>
  </g>
  <defs>
    <linearGradient id="d8e6b859" x1="66" y1="0" x2="66" y2="131" gradientUnits="userSpaceOnUse">
      <stop stop-color="#3990FF"></stop>
      <stop offset="1" stop-color="#2662FF"></stop>
    </linearGradient>
    <clipPath id="5cee92df">
      <rect width="132" height="131" fill="white"></rect>
    </clipPath>
  </defs>
</svg>