<svg width="24" height="24" viewBox="0 0 24 24" fill="none" xmlns="http://www.w3.org/2000/svg">
  <g id="be046000">
    <g id="e0994b46">
      <path id="c68b5086" d="M17.571 10.5791V8.27906C17.597 6.68077 17.0031 5.1345 15.914 3.96446C14.8249 2.79443 13.325 2.09149 11.729 2.00306C10.9279 1.98195 10.1306 2.12155 9.38435 2.41362C8.63806 2.70569 7.95784 3.1443 7.38385 3.70356C6.80986 4.26283 6.35371 4.93142 6.04235 5.66987C5.73099 6.40831 5.57072 7.20165 5.571 8.00306V10.5791C5.571 13.4071 3 14.0931 3 15.7211C3 17.1791 6.342 18.2891 11.571 18.2891C16.8 18.2891 20.142 17.1751 20.142 15.7171C20.142 14.0891 17.571 13.4031 17.571 10.5791Z" stroke="#6E737A" stroke-width="2" stroke-miterlimit="10" stroke-linecap="square"></path>
      <path id="967e40ff" d="M11.571 20.207C10.7377 20.207 9.90438 20.178 9.07104 20.12C9.23685 20.6534 9.56893 21.1198 10.0187 21.451C10.4685 21.7822 11.0125 21.9609 11.571 21.9609C12.1296 21.9609 12.6736 21.7822 13.1234 21.451C13.5732 21.1198 13.9052 20.6534 14.071 20.12C13.2884 20.1767 12.455 20.2057 11.571 20.207Z" fill="#6E737A"></path>
    </g>
  </g>
</svg>