<svg width="16" height="16" viewBox="0 0 16 16" fill="none" xmlns="http://www.w3.org/2000/svg">
  <g id="6ea85961">
    <g id="81ce187a">
      <path id="73ac97c0" d="M6.62 11.24C7.53375 11.24 8.42698 10.969 9.18673 10.4614C9.94649 9.95374 10.5386 9.23219 10.8883 8.388C11.238 7.5438 11.3295 6.61488 11.1512 5.71868C10.973 4.82249 10.533 3.99929 9.88683 3.35317C9.24071 2.70705 8.41751 2.26704 7.52132 2.08877C6.62513 1.91051 5.6962 2.002 4.852 2.35168C4.00781 2.70136 3.28626 3.29351 2.77861 4.05327C2.27096 4.81302 2 5.70625 2 6.62C2 7.8453 2.48675 9.02042 3.35317 9.88684C4.21958 10.7533 5.3947 11.24 6.62 11.24Z" stroke="#9E9E9E" stroke-width="2" stroke-linecap="round" stroke-linejoin="round"></path>
      <path id="ff7821d3" d="M13.877 13.877L9.91699 9.91699" stroke="#9E9E9E" stroke-width="2" stroke-linecap="round" stroke-linejoin="round"></path>
    </g>
  </g>
</svg>