<svg width="24" height="24" viewBox="0 0 24 24" fill="none" xmlns="http://www.w3.org/2000/svg">
  <g id="da403e23">
    <g id="935a587e">
      <path id="349f1345" d="M12 15.3159C8.13 15.3159 4.82996 15.9009 4.82996 18.2429C4.82996 20.5849 8.112 21.1899 12 21.1899C15.868 21.1899 19.17 20.6039 19.17 18.2629C19.17 15.9219 15.889 15.3159 12 15.3159Z" stroke="#ffffffff" stroke-width="2" stroke-linecap="round" stroke-linejoin="round"></path>
      <path id="2f7f73f7" d="M12.004 11.9719C13.2173 11.9677 14.3793 11.4823 15.235 10.6221C16.0907 9.76189 16.5701 8.59734 16.568 7.38403C16.5659 6.17073 16.0824 5.00782 15.2237 4.15063C14.365 3.29345 13.2013 2.81201 11.988 2.81201C10.7747 2.81201 9.61095 3.29345 8.75227 4.15063C7.89358 5.00782 7.41009 6.17073 7.40797 7.38403C7.40585 8.59734 7.88529 9.76189 8.74097 10.6221C9.59666 11.4823 10.7587 11.9677 11.972 11.9719H12.004Z" stroke="#ffffffff" stroke-width="2" stroke-linecap="round" stroke-linejoin="round"></path>
    </g>
  </g>
</svg>