<svg width="48" height="48" viewBox="0 0 48 48" fill="none" xmlns="http://www.w3.org/2000/svg">
  <g id="1f55c720">
    <path id="89246f41" d="M27 8H14C13.2044 8 12.4413 8.31607 11.8787 8.87868C11.3161 9.44129 11 10.2044 11 11V37C11 37.7956 11.3161 38.5587 11.8787 39.1213C12.4413 39.6839 13.2044 40 14 40H34C34.7956 40 35.5587 39.6839 36.1213 39.1213C36.6839 38.5587 37 37.7956 37 37V18L27 8Z" fill="url(#a9618b65)"></path>
    <path id="65233dea" opacity="0.4" d="M27 15C27 15.7956 27.3161 16.5587 27.8787 17.1213C28.4413 17.6839 29.2044 18 30 18H37L27 8V15Z" fill="white"></path>
    <g id="65d2ec7b">
      <path id="9b490aaa" d="M26.342 32.96C26.265 32.96 26.226 32.88 26.226 32.801V31C26.2272 30.6813 26.1324 30.3696 25.9541 30.1054C25.7757 29.8413 25.522 29.637 25.226 29.519L25.036 29.399C25.0154 29.3774 24.9884 29.363 24.959 29.358C24.919 29.318 24.842 29.279 24.842 29.199L24.726 28.399V23.2C24.7237 23.0206 24.6835 22.8437 24.608 22.681C24.5976 22.6119 24.611 22.5414 24.646 22.481C24.6641 22.4568 24.6874 22.437 24.7143 22.4232C24.7411 22.4093 24.7708 22.4017 24.801 22.401H25.887C26.0318 22.3992 26.1756 22.4262 26.3101 22.4802C26.4445 22.5342 26.567 22.6142 26.6704 22.7157C26.7738 22.8172 26.8562 22.9381 26.9127 23.0714C26.9693 23.2048 26.9989 23.3481 27 23.493C27 23.529 27 23.565 27 23.601V32C27.0053 32.1853 26.9659 32.3692 26.8851 32.5362C26.8044 32.7031 26.6846 32.8481 26.536 32.959C26.521 32.9741 26.5028 32.9857 26.4827 32.9928C26.4626 32.9999 26.4412 33.0023 26.42 33C26.381 33 26.381 32.96 26.342 32.96ZM20.59 25.481C20.531 25.4174 20.4921 25.3378 20.4784 25.2521C20.4647 25.1665 20.4768 25.0787 20.513 25L21.013 23.2H21.089L21.589 25C21.6094 25.0834 21.6095 25.1705 21.5893 25.2541C21.5691 25.3376 21.5292 25.415 21.473 25.48C21.3383 25.5582 21.1853 25.5994 21.0295 25.5994C20.8737 25.5994 20.7207 25.5582 20.586 25.48L20.59 25.481Z" fill="white"></path>
      <path id="cf97ab16" d="M20.666 22.96C20.6751 22.9152 20.6994 22.8748 20.7347 22.8457C20.77 22.8166 20.8142 22.8004 20.86 22.8H21.246C21.2916 22.8007 21.3356 22.8169 21.3707 22.846C21.4058 22.8751 21.4299 22.9153 21.439 22.96L21.67 23.88L21.979 23.205L21.515 22.08V22H20.474V22.08L20.088 23.2L20.396 23.961L20.666 22.96Z" fill="white"></path>
      <path id="e4897a05" d="M18.159 34C18.007 34.0003 17.8565 33.9706 17.7161 33.9127C17.5756 33.8548 17.4479 33.7698 17.3403 33.6626C17.2326 33.5553 17.1472 33.4279 17.0888 33.2877C17.0304 33.1474 17.0002 32.997 17 32.845V23.2C16.9897 22.893 17.1015 22.5944 17.3108 22.3695C17.5201 22.1446 17.81 22.0118 18.117 22H20.088L19.7 23.125V23.285L20.087 24.285C20.1046 24.3212 20.1321 24.3516 20.1662 24.3728C20.2004 24.394 20.2398 24.4052 20.28 24.405L20.125 24.88C20.0705 25.0299 20.0597 25.1922 20.0939 25.348C20.1281 25.5038 20.2058 25.6467 20.318 25.76C20.531 25.9154 20.7878 25.9991 21.0515 25.9991C21.3151 25.9991 21.572 25.9154 21.785 25.76C21.8972 25.6467 21.9749 25.5038 22.0091 25.348C22.0432 25.1922 22.0325 25.0299 21.978 24.88L21.824 24.363C21.8443 24.3612 21.8632 24.352 21.8773 24.3374C21.8915 24.3227 21.8999 24.3034 21.901 24.283L22.401 23.283C22.4199 23.2607 22.4302 23.2323 22.4302 23.203C22.4302 23.1738 22.4199 23.1454 22.401 23.123L21.9 22H23.134C23.2867 21.9987 23.4382 22.0277 23.5797 22.0852C23.7211 22.1428 23.8498 22.2278 23.9582 22.3354C24.0666 22.443 24.1527 22.571 24.2113 22.712C24.27 22.8531 24.3001 23.0043 24.3 23.157C24.301 23.1714 24.301 23.1857 24.3 23.2V29C24.3016 29.1672 24.3546 29.3299 24.4517 29.466C24.5488 29.6021 24.6854 29.7051 24.843 29.761L25.111 29.876C25.3407 29.959 25.5385 30.1122 25.6762 30.314C25.8139 30.5158 25.8845 30.7558 25.878 31V32.8C25.8888 33.1067 25.7776 33.4052 25.5688 33.6301C25.36 33.8551 25.0706 33.9881 24.764 34H18.164H18.159Z" fill="white"></path>
    </g>
  </g>
  <defs>
    <linearGradient id="a9618b65" x1="35.362" y1="15.392" x2="36.307" y2="48.3108" gradientUnits="userSpaceOnUse">
      <stop stop-color="#D0D8E1"></stop>
      <stop offset="1" stop-color="#BAC3CD"></stop>
    </linearGradient>
  </defs>
</svg>